<svg id="Layer_1" data-name="Layer 1" xmlns="http://www.w3.org/2000/svg" viewBox="0 0 67 67"><defs><style>.cls-1{fill:none;stroke:#cbcbcb;stroke-miterlimit:10;}.cls-2{fill:#989898;}</style></defs><title>mynomad region</title><circle class="cls-1" cx="33.62" cy="33.5" r="26.25"/><path class="cls-2" d="M30.31,49.22c0-.32-0.08-0.65-0.12-1A0.46,0.46,0,0,0,30,48.17c0,0.17,0,.29,0,0.42a0.22,0.22,0,0,1-.25.26c-0.18,0-.22-0.08-0.23-0.24s-0.09-.47-0.13-0.7a1.16,1.16,0,0,1,0-.2,0.39,0.39,0,0,0,0-.17,1.31,1.31,0,0,1-.08-1.09,0.71,0.71,0,0,0-.09-0.4c-0.07-.18-0.17-0.35-0.26-0.53s-0.16-.33-0.22-0.5a0.19,0.19,0,0,1,0-.14c0.3-.12.17-0.41,0.22-0.62a3.88,3.88,0,0,0,.09-0.59c0-.2,0-0.41,0-0.61s0.07-.27.07-0.41A3.42,3.42,0,0,0,29,41.18a1.15,1.15,0,0,1-.08-0.92,1.24,1.24,0,0,0-.1-0.46,2.1,2.1,0,0,1,0-.4c0-.1,0-0.2,0-0.3,0-.33.06-0.66,0.08-1a1.45,1.45,0,0,0,0-.3,0.65,0.65,0,0,1,0-.23,4.49,4.49,0,0,0-.08-1.34s-0.05-.09-0.06-0.14a0.6,0.6,0,0,1,0-.32,1.63,1.63,0,0,0,.09-1.13,1.17,1.17,0,0,1,0-.2,3.63,3.63,0,0,0-.28-1.51,0.76,0.76,0,0,0-.18-0.31c-0.21-.2-0.43-0.39-0.66-0.57a3.54,3.54,0,0,0-.48-0.32c-0.44-.24-0.89-0.47-1.33-0.72a1.78,1.78,0,0,1-.31-0.33c-0.16-.17-0.34-0.33-0.5-0.51a0.51,0.51,0,0,1-.13-0.46,1.19,1.19,0,0,0-.22-0.54,2.08,2.08,0,0,1-.41-0.75,0.05,0.05,0,0,0,0,0,1.85,1.85,0,0,1-.48-0.71,2.29,2.29,0,0,1-.22-0.51c-0.3-.58-0.59-1.17-0.94-1.73a2,2,0,0,0-.61-0.49,0.2,0.2,0,0,1-.1-0.28,0.43,0.43,0,0,0,0-.24,1.65,1.65,0,0,1-.14-0.54,1.65,1.65,0,0,1,.27-0.55,0.94,0.94,0,0,1,.18-0.18c0.2-.2.21-0.28,0-0.49l-0.2-.2a0.25,0.25,0,0,1-.07-0.14c0-.22,0-0.44,0-0.65a0.24,0.24,0,0,1,0-.11c0.12-.2.27-0.39,0.38-0.6a0.55,0.55,0,0,0,.09-0.34,0.29,0.29,0,0,1,.25-0.37l0.26-.09c0.11,0,.18-0.09.11-0.22a0.17,0.17,0,0,1,0-.13,1.37,1.37,0,0,1,.16-0.32,0.63,0.63,0,0,1,.28-0.22A1,1,0,0,0,24,18.58a0,0,0,0,0,0,0,1.22,1.22,0,0,1,0-.88A1.6,1.6,0,0,1,23.88,17a2.6,2.6,0,0,0-.21-0.84L24,15.86A0.16,0.16,0,0,0,24,15.76c-0.1-.34.22-0.34,0.38-0.48a1.39,1.39,0,0,0,.69-0.92,1,1,0,0,1,.49-0.63,0.21,0.21,0,0,1,.13,0,0.36,0.36,0,0,0,.11,0c0.32-.13.63-0.28,1-0.38a1.81,1.81,0,0,0,.55-0.43,0.29,0.29,0,0,1,.26,0c0.11,0.08.23,0.2,0.09,0.35s-0.18.11-.24,0.18a0.94,0.94,0,0,0-.1.26,0.67,0.67,0,0,0,.25.05A1.88,1.88,0,0,0,28,13.62a0.28,0.28,0,0,0,.14-0.14c0.06-.18.1-0.38,0.16-0.56a0.35,0.35,0,0,1,.1-0.1l0,0.14a2.32,2.32,0,0,1,.09.36c0,0.2.15,0.14,0.27,0.15a0.63,0.63,0,0,1,.53.51c0,0.13.08,0.17,0.22,0.15s0.6,0,.9,0a0.16,0.16,0,0,1,.1,0,0.6,0.6,0,0,0,1,0A0.48,0.48,0,0,1,31.78,14L32.47,14a2,2,0,0,0,.87-0.06,0.22,0.22,0,0,1,.12.09c-0.06.17-.14,0.33-0.2,0.5a0.22,0.22,0,0,0,0,.18,0.38,0.38,0,0,1,.21.43c0,0.13,0,.18.2,0.23a1.92,1.92,0,0,1,.73.41c0.18,0.16.25,0.45,0.43,0.61a1.54,1.54,0,0,0,1.41.7,2.44,2.44,0,0,1,1.56.29,0.19,0.19,0,0,1,.09.07,3,3,0,0,0,.77.68,0.69,0.69,0,0,1,.24.45,4.1,4.1,0,0,0,.2.87,0.71,0.71,0,0,0,.28.28,0.46,0.46,0,0,1,.11.6c-0.06.2-.11,0.37,0.18,0.42a0.47,0.47,0,0,1,.13.12A0.4,0.4,0,0,0,40,21a0.36,0.36,0,0,1,.43.32,0.2,0.2,0,0,0,.17,0,0.72,0.72,0,0,1,.71.06,5.21,5.21,0,0,0,1,.36,0.68,0.68,0,0,1,.3.39,0.38,0.38,0,0,0,.52.27,1,1,0,0,1,.41.1L44,22.66l0.29,0.06a0.68,0.68,0,0,0,.34,0,0.93,0.93,0,0,1,.86.17,9.48,9.48,0,0,1,1.3,1,1.06,1.06,0,0,0,.71.21,0.4,0.4,0,0,1,.48.33,7.51,7.51,0,0,1,.28,1.07,2.69,2.69,0,0,1-.08.77,2.78,2.78,0,0,1-.86,1.34,3,3,0,0,0-.55.88,1.5,1.5,0,0,1-.54.78,0.57,0.57,0,0,0-.21.57,3.31,3.31,0,0,0,0,.36c0,0.24.07,0.48,0.1,0.72a1.56,1.56,0,0,1,0,.29q0,0.49-.07,1a0.23,0.23,0,0,1,0,.14,0.69,0.69,0,0,0-.22.65,1.79,1.79,0,0,1-.43,1.23,0.81,0.81,0,0,0-.18.76,0.28,0.28,0,0,1-.13.21,0.5,0.5,0,0,0-.4.43,0.19,0.19,0,0,1-.12.08,0.34,0.34,0,0,1-.16,0,3,3,0,0,0-1.32.3,0.16,0.16,0,0,0-.11.08c0,0.24-.18.22-0.39,0.2a1.08,1.08,0,0,0-.53.23,3,3,0,0,0-.41.34,0.5,0.5,0,0,0-.11.14,0.54,0.54,0,0,1,0,.13,0.78,0.78,0,0,0-.24.73,1.26,1.26,0,0,0,.12.69,0.28,0.28,0,0,1,0,.18,2.1,2.1,0,0,1-.08.36,0.43,0.43,0,0,1-.13.23,1.18,1.18,0,0,0-.5.86,1.92,1.92,0,0,1-.51,1c-0.13.14-.26,0.27-0.38,0.41a0.49,0.49,0,0,0-.13.24A3.2,3.2,0,0,1,39,43.15a0.54,0.54,0,0,1-.78.23,0.22,0.22,0,0,0-.15,0,0.84,0.84,0,0,1-.76-0.13,3.22,3.22,0,0,0-.5-0.12l0,0.08a1,1,0,0,0,.12.12,2.82,2.82,0,0,1,.39.27,0.46,0.46,0,0,1,.1.3,0.31,0.31,0,0,0,.23.39,0.33,0.33,0,0,1,.22.41,2,2,0,0,1-.17.45,0.49,0.49,0,0,0-.08.14,0.54,0.54,0,0,1-.51.54,6.49,6.49,0,0,1-1.15.23,0.44,0.44,0,0,0-.52.45,0.48,0.48,0,0,0,.07.53c0.1,0.11,0,.24-0.1.31a0.88,0.88,0,0,1-.85,0,2.46,2.46,0,0,0-.33-0.12,0.16,0.16,0,0,0-.14,0,0.18,0.18,0,0,0,0,.15,4.89,4.89,0,0,0,.26.46,0.28,0.28,0,0,0,.37.14c0.3-.11.49,0,0.43,0.35a0.33,0.33,0,0,1-.14.17,3.17,3.17,0,0,0-.41.25,0.44,0.44,0,0,0,0,.29c0,0.26,0,.52,0,0.79a0.63,0.63,0,0,0-.74.63,0.37,0.37,0,0,0,.11.25,1.16,1.16,0,0,0,.65.33,0.62,0.62,0,0,1,.44.28,0.38,0.38,0,0,1-.12.55,2.59,2.59,0,0,0-.22.21,0.54,0.54,0,0,0-.19.61,0.31,0.31,0,0,1-.17.38c-0.31.2-.33,0.21-0.14,0.53a4.21,4.21,0,0,0,.46.56c0.09,0.1.25,0.16,0.17,0.34a0.12,0.12,0,0,0,0,.11,3.22,3.22,0,0,0,1.23.93c0.11,0,.19.15,0.3,0.16,0.3,0.05.6,0.07,0.9,0.1l0.34,0a0.38,0.38,0,0,1-.45.16,0.65,0.65,0,0,0-.66.2,0.92,0.92,0,0,1-.38.15l0.2,0.23a0.64,0.64,0,0,1-.56-0.07,0.9,0.9,0,0,0-.16-0.1l-1.06-.22a2.62,2.62,0,0,1-1-.42,6.68,6.68,0,0,0-.76-0.38,0.68,0.68,0,0,1-.39-0.31A0.93,0.93,0,0,0,32,54.91c-0.08-.05-0.16-0.12-0.25-0.19l0.2-.13a0.36,0.36,0,0,0-.39-0.26,0.68,0.68,0,0,1-.48-0.52,0.21,0.21,0,0,0-.18-0.3,0.17,0.17,0,0,1-.1-0.09c-0.11-.24-0.2-0.49-0.31-0.72s-0.25-.45-0.37-0.68a0.37,0.37,0,0,1,.16-0.5c0.18-.07.22-0.19,0.12-0.32s-0.21-.25-0.39-0.11a0.15,0.15,0,0,1-.25,0,0.49,0.49,0,0,1,0-.26c0-.1,0-0.2.07-0.3a0.33,0.33,0,0,1,0-.13,0.54,0.54,0,0,0,0-.62,0.88,0.88,0,0,1,0-.31c0-.06,0-0.11,0-0.17l0-.2a1,1,0,0,1,.19.09,0.49,0.49,0,0,1,.09.13Z"/><path class="cls-2" d="M38.14,54.18l0.16-.33a0.15,0.15,0,0,1,.07-0.08h0.56a2.93,2.93,0,0,1,.5,0,2.81,2.81,0,0,1,.42.16c-0.2.17-.33,0.29-0.48,0.39a0.36,0.36,0,0,1-.51,0,0.22,0.22,0,0,0-.2,0C38.4,54.5,38.27,54.32,38.14,54.18Z"/></svg>