<svg id="Layer_1" data-name="Layer 1" xmlns="http://www.w3.org/2000/svg" viewBox="0 0 67 67"><defs><style>.cls-1{fill:none;stroke:#cbcbcb;stroke-miterlimit:10;}.cls-2{fill:#989898;}</style></defs><title>mynomad region</title><circle class="cls-1" cx="33.62" cy="33.5" r="26.25"/><path class="cls-2" d="M21.22,16.25a0.6,0.6,0,0,0,.73.37c0.09,0,.19,0,0.29,0l0.3,0a0.76,0.76,0,0,0,1-.12,0.25,0.25,0,0,1,.17-0.11,0.62,0.62,0,0,1,.41-0.05,0.09,0.09,0,0,0,.07,0,1.76,1.76,0,0,1,1.31-.41h0.06c0.21,0,.42-0.11.64-0.13a1,1,0,0,1,.78.07,0.16,0.16,0,0,0,.13,0l0.49-.19a0.29,0.29,0,0,1,.17,0,0.33,0.33,0,0,0,.36,0,0.46,0.46,0,0,1,.23,0,2.51,2.51,0,0,1,.27,0,1.64,1.64,0,0,0,.66-0.17,0.67,0.67,0,0,1,.36,0,0.68,0.68,0,0,1,.18.27L30,15.64a0.12,0.12,0,0,1,.1,0,0.09,0.09,0,0,1,0,.08,0.84,0.84,0,0,1-.16.21c-0.21.16-.2,0.25,0,0.4a0.31,0.31,0,0,1,.12.15,0.41,0.41,0,0,1-.2.45,1,1,0,0,1-.2.13c-0.1.06-.2,0.11-0.1,0.25s0.2,0.17.33,0,0.11,0,.15.06a0.35,0.35,0,0,0,.31.32,1.48,1.48,0,0,1,.34.12,0.61,0.61,0,0,0,.3,0,1.28,1.28,0,0,1,.92.15c0.08,0,.2,0,0.28.06a0.38,0.38,0,0,1,.2.19,0.51,0.51,0,0,0,.52.46,2.24,2.24,0,0,1,1.22.39A0.51,0.51,0,0,0,35,19a0.34,0.34,0,0,0,0-.28,0.33,0.33,0,0,1,.08-0.5,4.75,4.75,0,0,1,.58-0.28,1.23,1.23,0,0,1,1,.08c0,0.18.09,0.23,0.26,0.25a6.82,6.82,0,0,1,.68.09,0.24,0.24,0,0,1,.15.13,0.19,0.19,0,0,0,.26.12,1.75,1.75,0,0,1,1,.16,1.75,1.75,0,0,0,.26.05,6,6,0,0,0,.63.16,0.78,0.78,0,0,0,.31-0.09,0.6,0.6,0,0,0,.3-0.11A0.77,0.77,0,0,1,41,18.62a0.22,0.22,0,0,1,.14,0l0.26,0.06a0.17,0.17,0,0,0,.24.14l0,0a0.86,0.86,0,0,0,.61,0,1.73,1.73,0,0,0,.44,0,3,3,0,0,1,.3.91,3.7,3.7,0,0,1-.31,1,1.08,1.08,0,0,1-.6-0.68,0.08,0.08,0,0,0,0,0l-0.34-.47-0.08.13a3.35,3.35,0,0,0,.42.69,6.34,6.34,0,0,1,.38.64,2,2,0,0,1,.12.32q0.3,0.57.61,1.12a4,4,0,0,0,.25.35l0.07,0-0.16,0a3.63,3.63,0,0,0,.12.47,0.57,0.57,0,0,0,.18.18,0.78,0.78,0,0,0,.2.14,1.16,1.16,0,0,1,.4.66,0.86,0.86,0,0,1,.05.39c0,0.23,0,.46.06,0.69a0.4,0.4,0,0,0,.23.32,1.49,1.49,0,0,1,.77,1.12,1.85,1.85,0,0,0,.15.49c0,0.06.06,0.22,0.21,0.12a0.15,0.15,0,0,1,.09.07,0.24,0.24,0,0,0,.25.19,1,1,0,0,1,.46.28,3.36,3.36,0,0,1,.37.35C47,28.3,47,28.4,47.1,28.47s0.24,0.17.34,0.27a1,1,0,0,1,.22.36,0.46,0.46,0,0,1-.19.2s-0.11,0-.17.09a0.56,0.56,0,0,1,.49.32,0.63,0.63,0,0,0,1,.19,0.37,0.37,0,0,1,.34,0,0.47,0.47,0,0,0,.5-0.11A0.41,0.41,0,0,1,50,29.66a0.81,0.81,0,0,0,.31-0.05,0.43,0.43,0,0,1,.13,0,1.31,1.31,0,0,0,.64-0.08,0.85,0.85,0,0,0,.49-0.23,0.75,0.75,0,0,1,.38,0,0.74,0.74,0,0,0,0,.81c-0.24,0-.24,0-0.29.4a0.82,0.82,0,0,1-.1.3c-0.13.21-.3,0.4-0.41,0.62s-0.28.63-.44,0.94a5.92,5.92,0,0,1-.31.52,7,7,0,0,1-1.25,1.45c-0.16.14-.35,0.23-0.52,0.36a9.19,9.19,0,0,0-1,.79c-0.35.35-.62,0.76-0.95,1.13a1.54,1.54,0,0,1-.68.55,0.2,0.2,0,0,0-.1.11c-0.1.23-.18,0.47-0.28,0.71a8,8,0,0,0-.38.76,0.48,0.48,0,0,0,.21.71c0.12,0.08.11,0.13,0,.23a0.21,0.21,0,0,0,0,.3,0.46,0.46,0,0,1,0,.2,2.33,2.33,0,0,0,0,.36c0,0.14.1,0.26,0.13,0.4a0.49,0.49,0,0,0,.28.36,0.32,0.32,0,0,1,.19.38,6.24,6.24,0,0,0,0,.81,5.34,5.34,0,0,0,0,.57,1.39,1.39,0,0,0,.09.42,0.79,0.79,0,0,1-.11.69,1.7,1.7,0,0,1-.32.4,1.38,1.38,0,0,1-.69.45,2.15,2.15,0,0,0-1.21.85,0.82,0.82,0,0,1-.19.13l-0.25.18-0.4.33a0.36,0.36,0,0,0,0,.41,0.44,0.44,0,0,1,.16.32,0.76,0.76,0,0,0,.22.53,0.14,0.14,0,0,1,0,.11c0,0.26-.05.53-0.08,0.8h0.08a0.58,0.58,0,0,1-.36.49c-0.26.11-.54,0.19-0.8,0.3a0.52,0.52,0,0,0-.37.32,0.26,0.26,0,0,0,0,.2L42,49.82l0.06,0c-0.11.42-.21,0.83-0.34,1.24a0.43,0.43,0,0,1-.21.24,1.68,1.68,0,0,0-.68.77,2.3,2.3,0,0,1-.71.78c-0.16.1-.27,0.29-0.43,0.39-0.35.24-.71,0.46-1.08,0.68a0.56,0.56,0,0,1-.3,0c-0.14,0-.28,0-0.29.18-0.16,0-.33-0.13-0.45.07H37.53l-1-.08a0.53,0.53,0,0,0-.33.06,0.78,0.78,0,0,1-.6.14,0.74,0.74,0,0,0-.38.12,0.38,0.38,0,0,1-.55-0.06,0.66,0.66,0,0,0-.17-0.07l-0.09-.06a0.36,0.36,0,0,0-.09-0.09,0.55,0.55,0,0,0-.15.09,0.22,0.22,0,0,1,0-.13c0.16-.26-0.14-0.35-0.18-0.53a0.43,0.43,0,0,0-.07-0.11l0.11-.05a0.32,0.32,0,0,0,.13-0.13,1.58,1.58,0,0,0-.12-0.49c-0.17-.33-0.4-0.64-0.54-1A2.07,2.07,0,0,0,32.81,51a1.27,1.27,0,0,1-.47-0.9,3,3,0,0,0-.11-0.31c0-.15,0-0.32-0.06-0.47S32.06,49,32,48.9A2.18,2.18,0,0,1,32,48.15a0.58,0.58,0,0,0-.14-0.51,5,5,0,0,1-.54-0.91,7.33,7.33,0,0,0-.59-1,1,1,0,0,1-.21-0.64c0-.23,0-0.47,0-0.69a5.54,5.54,0,0,1,.18-0.58c0.07-.26.14-0.53,0.21-0.8A0.59,0.59,0,0,1,31,42.91l0.16-.25a0.3,0.3,0,0,1,.11-0.1A0.63,0.63,0,0,0,31.62,42a1.1,1.1,0,0,0-.19-0.77,3.4,3.4,0,0,1-.23-0.57,0.16,0.16,0,0,1,.08-0.14,0.22,0.22,0,0,0,.09-0.32c-0.08-.23-0.17-0.46-0.27-0.68s-0.14-.16-0.17-0.25-0.1-.4-0.16-0.6a0.5,0.5,0,0,0-.05-0.13,6.64,6.64,0,0,0-1.11-1.31,3.54,3.54,0,0,1-.44-0.62c-0.1-.16-0.18-0.33-0.28-0.51a0.52,0.52,0,0,0,.33-0.72l0.15,0a0.38,0.38,0,0,0,0-.19c-0.16-.08-0.06-0.16,0-0.22a1,1,0,0,0,.16-0.56,0.56,0.56,0,0,0-.1-0.61,0.32,0.32,0,0,1,0-.16A0.32,0.32,0,0,1,29,33.29l-0.26-.11a0.26,0.26,0,0,1-.1.06l-1,.13A0.45,0.45,0,0,1,27.09,33c0-.12-0.1-0.24-0.16-0.36a0.76,0.76,0,0,0-.85-0.44c-0.37,0-.74.07-1.1,0.12a1,1,0,0,0-.3.18,0.25,0.25,0,0,1-.13.05,1.12,1.12,0,0,0-.67.2c-0.13.06-.28,0.1-0.41,0.15s-0.21.1-.31,0.14a0.33,0.33,0,0,1-.21,0,2.82,2.82,0,0,0-1.27-.19,2.49,2.49,0,0,0-.42,0,3.56,3.56,0,0,0-.86.28,0.73,0.73,0,0,1-.74,0,3.29,3.29,0,0,1-1-.69,1.7,1.7,0,0,0-.27-0.18L18,32.05a4.39,4.39,0,0,0-.37-0.26c-0.14-.08-0.29-0.13-0.46-0.2l0.11-.06A2.11,2.11,0,0,1,17,31.17c-0.05-.11,0-0.25-0.05-0.37a1.08,1.08,0,0,0-.42-0.54,1.31,1.31,0,0,1-.33-0.36A0.22,0.22,0,0,0,16,29.84a1.06,1.06,0,0,1-.25-0.3,0.8,0.8,0,0,1-.06-0.23c-0.18,0-.38.09-0.43-0.18C15,29,15.05,28.8,15.06,28.59a0.45,0.45,0,0,1,.08-0.23,0.86,0.86,0,0,0-.44-0.65,1,1,0,0,0,.51-0.84,1.08,1.08,0,0,1,.15-0.44,1.17,1.17,0,0,0-.09-1.15,0.32,0.32,0,0,1,.05-0.3,0.32,0.32,0,0,0,0-.28A3.45,3.45,0,0,0,15,24.28l-0.06.12h0c0-.19.06-0.38,0.1-0.57a0.22,0.22,0,0,1,.08-0.13,2.9,2.9,0,0,0,.54-0.91c0.1-.14.25-0.24,0.36-0.36a0.55,0.55,0,0,0,.15-0.25,0.92,0.92,0,0,1,.56-0.86,0.72,0.72,0,0,0,.3-0.48,0.49,0.49,0,0,1,.41-0.31,1.1,1.1,0,0,0,.74-0.34c0.12-.13.3-0.2,0.43-0.32a2.22,2.22,0,0,0,.32-0.39,0.24,0.24,0,0,0,0-.35A0.72,0.72,0,0,1,19,18.44a1.86,1.86,0,0,0,.16-0.33,0.24,0.24,0,0,1,0-.08,1.75,1.75,0,0,1,.72-0.5,1.24,1.24,0,0,0,.9-0.86A0.47,0.47,0,0,1,21.22,16.25Z"/><path class="cls-2" d="M49.88,43.69l0,0.14h0l0.09-.3a0.19,0.19,0,0,1,0-.09,0.18,0.18,0,0,0,.08-0.28,0.16,0.16,0,0,1,.06-0.11,0.56,0.56,0,0,1,.15.07c0.14-.19.54-0.3,0.29-0.65l0.24-.27a2.16,2.16,0,0,1,.52,1.29,0.52,0.52,0,0,0,.07.3,0.45,0.45,0,0,1-.08.59l-0.2-.31H51.07a0.91,0.91,0,0,0,0,.35,0.39,0.39,0,0,1-.06.43,1.12,1.12,0,0,0-.08.34,4.66,4.66,0,0,1-.12.56c-0.24.7-.49,1.4-0.74,2.11C50,48.05,50,48.25,50,48.43s-0.17.46-.25,0.69a0.38,0.38,0,0,1-.33.22,2,2,0,0,0-.45.15,0.37,0.37,0,0,1-.42,0c-0.13-.08-0.28-0.11-0.41-0.2a0.85,0.85,0,0,1-.3-0.82,0.47,0.47,0,0,0-.1-0.31,0.68,0.68,0,0,1-.05-0.73c0.17-.28.33-0.56,0.52-0.83a0.54,0.54,0,0,0,0-.43,6.48,6.48,0,0,0-.2-0.71,0.65,0.65,0,0,1,.12-0.59,1.45,1.45,0,0,0,.1-0.33,0.19,0.19,0,0,1,.11-0.09l0.54-.14,0.2-.08a1.65,1.65,0,0,0,.23-0.12Z"/><path class="cls-2" d="M28.71,33.87c0.19-.2.19-0.2,0.28-0.18C28.91,34,28.82,34.06,28.71,33.87Z"/><path class="cls-2" d="M45.45,38.82l0.16,0.38C45.34,39.1,45.33,39,45.45,38.82Z"/></svg>