<svg id="Layer_1" data-name="Layer 1" xmlns="http://www.w3.org/2000/svg" viewBox="0 0 67 67"><defs><style>.cls-1{fill:none;stroke:#cbcbcb;stroke-miterlimit:10;}.cls-2{fill:#989898;}</style></defs><title>mynomad region</title><circle class="cls-1" cx="33.62" cy="33.5" r="26.25"/><path class="cls-2" d="M50.9,21.87a1.67,1.67,0,0,1-.45-0.11,8.61,8.61,0,0,0-1.13-.34c-0.46-.12-0.89-0.24-1.35-0.33s-0.68-.08-1-0.12l-1.3-.11,0.63,0.38,0,0.06-0.71-.18L45.69,21l-0.48-.14a0.06,0.06,0,0,0-.05,0c-0.06.24-.23,0.12-0.37,0.12h-1a1,1,0,0,1-.67-0.19,1.87,1.87,0,0,0-.88-0.25c-0.38,0-.76.05-1.14,0a2.46,2.46,0,0,1-1-.23,1.8,1.8,0,0,0-1-.19,7.66,7.66,0,0,1-.88-0.11,4.77,4.77,0,0,0-.84,0l0.13,0.07-0.33,0L37.6,20.4H36.86a4.89,4.89,0,0,1-.51,0,3.61,3.61,0,0,1-.54-0.12l0.1,0.33A1.75,1.75,0,0,1,35,20.23a1.27,1.27,0,0,0-1.12-.39,1.69,1.69,0,0,1-.53-0.1,0.46,0.46,0,0,0-.29,0L33.24,20a3.14,3.14,0,0,1-1.12-.1c-0.31-.16-0.61,0-0.89-0.14a0.52,0.52,0,0,0-.25,0,0.43,0.43,0,0,1-.5-0.22,0.31,0.31,0,0,0-.44.1H29.79c0,0.22-.14.29-0.53,0.25l0.63-.39h0l0.27-.21a1.35,1.35,0,0,0-.28-0.22,2.49,2.49,0,0,0-1.67-.14l-0.08-.26,0,0.07a1.58,1.58,0,0,1-.31,0A1.31,1.31,0,0,0,27,18.62c-0.2.06-.22,0.12-0.15,0.28L26.41,19a0.77,0.77,0,0,1-.35,0,1.54,1.54,0,0,0-.84.13,2.61,2.61,0,0,1-.51.09c-0.18,0-.36.11-0.54,0.16s-0.14.15-.25,0.06a0.69,0.69,0,0,0-.12.1l0.49,0.13,0,0.09-0.41-.05a3.57,3.57,0,0,1-.87.13l0.47,0.38a3.65,3.65,0,0,0-1,0l0.24,0.06-0.29.06v0.05l0.35,0.15a0.33,0.33,0,0,1-.49-0.26,0.53,0.53,0,0,0-.55-0.29l0.45,0.27c-0.21.08-.38,0.1-0.38,0.31l-0.25,0c0.11-.22.08-0.39-0.1-0.43S21.07,20,20.9,20l0.2,0v0l-0.43-.08c0,0.2-.06.38-0.11,0.55a0.34,0.34,0,0,1-.16.13c-0.12.07-.14,0.13,0,0.22a0.3,0.3,0,0,1,.12.19,0.19,0.19,0,0,0,.22.19,0.64,0.64,0,0,1,.39.2,0.57,0.57,0,0,1,.14.38c0,0.5-.06,1-0.11,1.49a5.72,5.72,0,0,1-.52,1.77,1.48,1.48,0,0,0-.07.43,5.51,5.51,0,0,1-.1,1,2.14,2.14,0,0,1-.78,1.18,2.21,2.21,0,0,0-1-.62A1.11,1.11,0,0,0,18,27a0.58,0.58,0,0,0-.26.56,2,2,0,0,0,.07.87,6.55,6.55,0,0,0,.59,1c0.17-.12.29-0.21,0.42-0.29a0.34,0.34,0,0,1,.43-0.05,0.22,0.22,0,0,0,.15,0,0.26,0.26,0,0,1,.33.3,1.85,1.85,0,0,0,0,.24,2.91,2.91,0,0,0-.5,0,0.61,0.61,0,0,0-.12.26l-0.21,0a3.25,3.25,0,0,1,.29.27,0.84,0.84,0,0,0,.56.44,0.33,0.33,0,0,1,.07.16,1.94,1.94,0,0,0,.08.31,0.45,0.45,0,0,1,.1.38,0.18,0.18,0,0,0,.22.25l0,0.21c0.48,0.13.19,0.61,0.43,0.87a1.24,1.24,0,0,1-1,.05c-0.16-.1-0.34-0.17-0.51-0.26A0.4,0.4,0,0,1,19,32.07a0.25,0.25,0,0,0,0-.15c0-.3,0-0.3.11-0.32-0.32-.06-0.76-0.11-1.19-0.22a2.77,2.77,0,0,1-.62-0.29c-0.17-.09-0.31-0.21-0.48-0.3a3.1,3.1,0,0,0-.43-0.15,0.88,0.88,0,0,1,0,.43,0.47,0.47,0,0,1-.53.19,0.27,0.27,0,0,0-.17,0A1.6,1.6,0,0,1,15,31.16c-0.18,0-.26-0.26-0.45-0.14a1,1,0,0,1-.12-0.14l-0.39,0a1.11,1.11,0,0,0-.75.3,0.23,0.23,0,0,1-.15.05l-0.48,0a0.14,0.14,0,0,0-.08.1c0.06,0.16.1,0.21,0,.21H12V32.4l0.23,0s-0.08,0-.08,0l-0.16,0,0.2,0.21L12,32.91c0.35-.11.28,0.18,0.34,0.34h0.06l0.07-.33a0.91,0.91,0,0,1,.24.13,0.29,0.29,0,0,0,.39.07,0.84,0.84,0,0,0,.16-0.24,2,2,0,0,1,.39.16,0.5,0.5,0,0,0,.75,0,0.22,0.22,0,0,1,.21,0,0.15,0.15,0,0,0,.24,0,0.13,0.13,0,0,1,.07,0,1.36,1.36,0,0,0,0,.47,0.82,0.82,0,0,1,0,.57,4.17,4.17,0,0,0-.2.66,0.4,0.4,0,0,1-.3.42,3.47,3.47,0,0,1-.53,0c0,0.12.1,0.27,0.14,0.43a2.25,2.25,0,0,0,.46.82,0.15,0.15,0,0,0,.26,0,0.22,0.22,0,0,1,.22,0c0.22,0.31.43,0.63,0.64,0.95a1,1,0,0,1,.07.18,1,1,0,0,0,.1.24,4.45,4.45,0,0,1,.32.36,0.67,0.67,0,0,1,.14.43,0.77,0.77,0,0,0,.14.48,1.25,1.25,0,0,0,.37.4,0.68,0.68,0,0,1,.24.27,0.81,0.81,0,0,0,.26.46l0.41,0.56-0.11.09-0.24-.26v0.08l0,0-0.06-.13-0.06.06,0.32,0.31a0.67,0.67,0,0,1,.19.22c0.09,0.28.13,0.58,0.22,0.86a0.46,0.46,0,0,0,.23.25A0.57,0.57,0,0,0,18.64,42a0.82,0.82,0,0,1,.23-0.09l0.41-.12,0.27-.1,0.22-.12a2.37,2.37,0,0,1,.28-0.18c0.18-.08.38-0.14,0.57-0.22s0.25-.09.21-0.27a0.19,0.19,0,0,1,.11-0.14,4.77,4.77,0,0,1,.68-0.21,0.23,0.23,0,0,0,.23-0.21A0.33,0.33,0,0,1,22,40.15a0.75,0.75,0,0,0,.2-0.09,0.37,0.37,0,0,1,.38-0.33l0.05-.53,0.24,0.06A1.71,1.71,0,0,1,23,38.87a4.27,4.27,0,0,1,.29-0.47H23.18C23.11,38.32,23,38.25,23,38.17a0.59,0.59,0,0,0-.46-0.29,0.6,0.6,0,0,1-.53-0.6c0-.13,0-0.26,0-0.43a0.94,0.94,0,0,0-.13.1c-0.15.19-.29,0.39-0.45,0.56a0.49,0.49,0,0,1-.66.13l-0.11.17-0.28-.19c0.12-.36.08-0.59-0.15-0.67L20,37.33,19.9,37,20,37,20,37.1l0.05,0L20,36.93l-0.1-.09a2,2,0,0,0-.27-0.32,1.38,1.38,0,0,1-.45-0.67,0.34,0.34,0,0,1,.23-0.41l0.34,0a2.48,2.48,0,0,0,.87,1,2.2,2.2,0,0,0,.72.37,1,1,0,0,0,.51-0.11c0.21-.14.24-0.16,0.31,0.11a0.33,0.33,0,0,0,.26.33l0.87,0.15a5,5,0,0,0,.68.07,5.72,5.72,0,0,0,.62-0.06h0.18a1.41,1.41,0,0,1,.45,0,0.47,0.47,0,0,1,.31.26,1.45,1.45,0,0,0,.64.62,1.2,1.2,0,0,0,.52.15l-0.49.13c0.17,0.18.33,0.37,0.51,0.53a0.42,0.42,0,0,0,.65-0.16s0.05-.09.11-0.18c0.06,0.39.1,0.72,0.17,1a8.39,8.39,0,0,0,.29,1.09c0.11,0.31.3,0.59,0.43,0.89s0.21,0.53.32,0.8,0.24,0.61.38,0.91a2.12,2.12,0,0,0,.3.47,0.2,0.2,0,0,0,.33-0.08c0-.3.22-0.31,0.46-0.24A0.61,0.61,0,0,1,30,43.3,2.14,2.14,0,0,1,30.24,43c0-.15,0-0.39,0-0.63,0-.07.06-0.14,0.06-0.2,0-.28,0-0.55-0.09-0.82s0-.28.22-0.32a0.07,0.07,0,0,0,0,0,0.38,0.38,0,0,1,.31-0.25,0.38,0.38,0,0,0,.09-0.13A1.45,1.45,0,0,1,31,40.36a6.29,6.29,0,0,0,.52-0.54,1.31,1.31,0,0,1,.5-0.43,0.3,0.3,0,0,0,.21-0.44,0.27,0.27,0,0,1,.12-0.21,0.5,0.5,0,0,1,.34,0,2.18,2.18,0,0,0,.46-0.08,0.37,0.37,0,0,0,.46-0.36,3.51,3.51,0,0,1,.22.48l0,0a1.24,1.24,0,0,0,.57.6,0.15,0.15,0,0,1,.09.11,2.06,2.06,0,0,1,0,.27,0.48,0.48,0,0,1,.22.08,3.39,3.39,0,0,1,.17.63,1.5,1.5,0,0,1,0,.39c0.24,0.1.45,0.19,0.6-.09a0.53,0.53,0,0,1,.11-0.07l0.25-.26c0.13,0.37.29,0.75,0.4,1.14a1.32,1.32,0,0,0,.18.36c0,0.06.16,0.2,0,.26a0.32,0.32,0,0,1,0,.38,0.48,0.48,0,0,1,.19.07,0.11,0.11,0,0,1-.12.17,2.2,2.2,0,0,1,.09.46,6.7,6.7,0,0,1-.08.7c0.45-.08.43,0.35,0.62,0.45l0,0.18,0.1-.07a1,1,0,0,1,.1.21,1.15,1.15,0,0,0,0,.24,2,2,0,0,0,.32.72c0.06,0.05,0,.2.1,0.25s0.34,0.22.5,0.35,0.32,0.29.48,0.43l0.17-.15-0.32-.1c0.23,0,.16-0.1.11-0.19a1.5,1.5,0,0,1-.28-1.05,0.46,0.46,0,0,0-.18-0.37,1.71,1.71,0,0,0-.77-0.58,0.19,0.19,0,0,1-.09-0.11,1.12,1.12,0,0,0-.45-0.8,0.09,0.09,0,0,1,0-.08c0-.15,0-0.3,0-0.45a2.94,2.94,0,0,0,0-.7c0-.31.15-0.33,0.15-0.29v0.32c1-.06.66,0.12,0.82,0.35a1,1,0,0,0,.44.51,0.23,0.23,0,0,1,.05.08,0.33,0.33,0,0,0,.07,0c0-.06.19-0.11,0.2-0.16S38,43.11,39,43.15v0.64a0.28,0.28,0,0,1,.11-0.27,0.46,0.46,0,0,0,.3-0.49A0.52,0.52,0,0,0,39.59,43,2.93,2.93,0,0,1,40,42.7a0.23,0.23,0,0,0,.15-0.27c0-.18,0-0.36,0-0.55a1.8,1.8,0,0,0-.77-1.28,0.49,0.49,0,0,1-.09-0.09l-0.5-.57a0.46,0.46,0,0,1,0-.62s0.06-.1.1-0.14a1.45,1.45,0,0,1,.39-0.36,1.69,1.69,0,0,1,.52-0.07c0.07,0.17.11,0.29,0.17,0.4a0.39,0.39,0,0,0,.13.1c0-.05,0-0.1.06-0.16a0.58,0.58,0,0,1,.07-0.27,4.53,4.53,0,0,1,.6-0.17c0.09-.08.37-0.1,0.25-0.37,0.12,0.2.12,0.2,0.33,0.09a2,2,0,0,0,.27-0.07c0.13-.1.4,0,0.41-0.28a0.07,0.07,0,0,1,0,0,1.45,1.45,0,0,0,.6-0.6,0.78,0.78,0,0,1,.2-0.17,0.25,0.25,0,0,1,0-.39,1.46,1.46,0,0,1,.32-0.65,0.08,0.08,0,0,0,0-.06c0-.27,0-0.54,0-0.81l-0.08.18-0.4-.12L43,35.12l-0.36-.29,0,0,0.16,0.09a0.3,0.3,0,0,0,0-.08,0.09,0.09,0,0,0,0-.05,1.57,1.57,0,0,1-.56-0.57,1.48,1.48,0,0,0-.73-0.57,1.19,1.19,0,0,1,.83-0.74,0.48,0.48,0,0,0-.1-0.22,3.14,3.14,0,0,0-.59-0.14,0.34,0.34,0,0,0-.18.12,1.55,1.55,0,0,0-.15.19l-0.2-.28a0.22,0.22,0,0,0-.23-0.16A0.29,0.29,0,0,1,40.52,32a0.26,0.26,0,0,0,.38-0.21A0.37,0.37,0,0,1,41,31.72l0.21-.28a0.24,0.24,0,0,1,.34-0.05,0.15,0.15,0,0,1,.06.25c-0.13.15,0,.24,0.08,0.32l-0.11.16,0.06,0.05A2.48,2.48,0,0,0,41.84,32a0.71,0.71,0,0,1,.83-0.12c0.23,0.06.13,0.27,0.14,0.41a0.31,0.31,0,0,0,.34.27,0.79,0.79,0,0,1,.37.14,0.63,0.63,0,0,1,0,.25,0.78,0.78,0,0,1,.34.79c0,0.18.13,0.15,0.21,0.13s0.3-.13.45-0.17a0.29,0.29,0,0,0,.23-0.43c0-.07-0.09-0.13-0.12-0.21a2.53,2.53,0,0,0-.83-0.91c-0.11-.1-0.24-0.19-0.34-0.28l0.48-.51H43.84a1.48,1.48,0,0,1,0-.45,0.8,0.8,0,0,1,.24-0.32,0.2,0.2,0,0,1,.17,0,0.38,0.38,0,0,0,.49.12,0.61,0.61,0,0,0,.36-0.49,3.56,3.56,0,0,1,.13-0.52c0-.14.06-0.29,0.08-0.44s0-.17,0-0.25a1.1,1.1,0,0,0-.11-0.85c-0.08-.11-0.16-0.22-0.24-0.33a0.7,0.7,0,0,1-.17-0.52h0.08l0.07,0a2.13,2.13,0,0,1,.59.65,4.65,4.65,0,0,1,.37.57l0.22,0.31,0.41,0.67,0.05,0,0-.3L47,29.36a1,1,0,0,0-.21-0.26,1.16,1.16,0,0,1-.72-1l0.59,0.24-0.76-.67a3,3,0,0,1-.63-0.62,5.85,5.85,0,0,0-.65-0.69,0.53,0.53,0,0,0-.21-0.09v0l0.21,0.17-0.15.18-1.09-.44-0.11.39C43.12,26.48,43,26.36,43,26.24s0-.12-0.06-0.17-0.25,0-.41,0L43,26.27a0.25,0.25,0,0,1-.14.08,0.39,0.39,0,0,0-.41-0.16,1.8,1.8,0,0,1-.25-0.08c0.11-.18.23-0.33,0.31-0.49a2.45,2.45,0,0,0,.08-0.32,3.71,3.71,0,0,0,.21-0.57,0.2,0.2,0,0,1,.21-0.2c0.34,0,.67,0,1,0h0.56l0-.16a4.84,4.84,0,0,0,.51.07c0.15,0,.24,0,0.17.25l1-.12V24.52l-0.46-.16c0-.2.05-0.41,0.09-0.62A0.16,0.16,0,0,1,46,23.68h0.68c-0.08.33,0.31,0.2,0.38,0.41,0.17-.11.15-0.43,0.45-0.34l-0.32-.3,0-.07a0.6,0.6,0,0,1,.26.07,2.41,2.41,0,0,0,.23.33c0.15,0.1.1,0.18,0,.24a0.68,0.68,0,0,0-.16.56c0,0.31,0,.39-0.28.48,0,0.13.06,0.26,0.09,0.38a0.28,0.28,0,0,0,0,.12c0.21,0.24.67,0.5,0.91,0.72A4.31,4.31,0,0,0,50,27.55H49.62c0.22-.18.17-0.32,0-0.57a0.3,0.3,0,0,1-.06-0.2,0.28,0.28,0,0,1,.15,0h0.12a2.69,2.69,0,0,1-.31-0.26,0.23,0.23,0,0,1,0-.19,0.23,0.23,0,0,1,.15,0h0.18C49.74,26,49.31,26,49.35,25.62l0.26,0.08,0-.06c-0.1-.06-0.21-0.12-0.31-0.19a0.74,0.74,0,0,1-.27-0.25,0.23,0.23,0,0,0-.3-0.17c-0.15,0-.36-0.12-0.32-0.23a0.46,0.46,0,0,0-.22-0.49l0.43,0c0.14-.37.23,0.06,0.36,0,0-.3.27-0.25,0.45-0.22a3.28,3.28,0,0,1,.58.2c-0.07-.2,0-0.28.43-0.71a0.9,0.9,0,0,1,.91-0.14,0.29,0.29,0,0,0-.11-0.18l-0.91-.49a0.18,0.18,0,0,1,0-.15,2.09,2.09,0,0,1,.11-0.28,0.94,0.94,0,0,0,.35,0,0.92,0.92,0,0,1,.68.14c0.08,0,0,.06.07,0.09a0.92,0.92,0,0,1,.45.19V22.12A3.58,3.58,0,0,0,50.9,21.87Z"/><path class="cls-2" d="M40.53,47.47l0.09,0.69,0.5,0,0.05,0.19,0.46-.15a0.35,0.35,0,0,0,.18.11c0.28-.09.26,0.11,0.27,0.29l0.45-.23,0.1,0.16,0.17-.66a0,0,0,0,0,0,0c-0.12-.19,0-0.29.13-0.4a0.4,0.4,0,0,0,.2-0.47c-0.06-.24.05-0.31,0.31-0.3a1,1,0,0,0,.21-0.06,3.41,3.41,0,0,0-.26-0.23,0.36,0.36,0,0,1-.12-0.26,2.6,2.6,0,0,1-.11-0.62,0.29,0.29,0,0,0,0-.07l0.38-.18-0.23-.12L43.65,45V45a1.07,1.07,0,0,1-.76-0.81c-0.2.27-.39,0.52-0.57,0.78a0.2,0.2,0,0,0,0,.12l-0.49.2a0.73,0.73,0,0,1-.54.6c-0.2,0-.43.08-0.36,0.39a0.35,0.35,0,0,1-.08.16l-0.39-.12a0.22,0.22,0,0,0-.16,0,0.54,0.54,0,0,0-.14.28,6.75,6.75,0,0,0,.09.69C40.3,47.41,40.36,47.51,40.53,47.47Z"/><polygon class="cls-2" points="39.08 49.28 39.08 49.29 39.09 49.28 39.08 49.28"/><path class="cls-2" d="M39.48,48a0.24,0.24,0,0,1-.12-0.14,1.65,1.65,0,0,1-.1-0.14c0-.07,0-0.12-0.09-0.23l-0.3.27,0.28,0.11c-0.33,0-.41-0.05-0.49-0.45l-0.37-.14c0.16-.18.24-0.32,0.06-0.49s-0.07-.11-0.11-0.15l-0.35-.27-0.12-.1a0.47,0.47,0,0,0,0-.08l-0.34-.08c-0.2-.19-0.39-0.35-0.56-0.53a0.89,0.89,0,0,1-.3-0.31A0.4,0.4,0,0,0,36.12,45a0.51,0.51,0,0,1-.46-0.14,0.49,0.49,0,0,0-.2,0,2,2,0,0,0,.2.4c0.2,0.23.44,0.43,0.62,0.67a1.69,1.69,0,0,0,.38.38,0.31,0.31,0,0,1,.07.14,1.27,1.27,0,0,0,.19.47,1.37,1.37,0,0,1,.38.53,2.22,2.22,0,0,0,.18.49,8.23,8.23,0,0,0,.61.75c0.15,0.17.31,0.31,0.47,0.47a0.22,0.22,0,0,0,.28.09,0.47,0.47,0,0,1,.26,0c0-.38.08-1.2,0.11-1.2h0.29Z"/><path class="cls-2" d="M48,32.31h0.11c0-.09,0-0.17,0-0.24a1.2,1.2,0,0,0-.12-0.35,4.55,4.55,0,0,0-.47-0.58,0.14,0.14,0,0,0-.25,0,0.43,0.43,0,0,0,0,.34,0.87,0.87,0,0,0,.19.32,1,1,0,0,1-.07.88,0.3,0.3,0,0,1-.41.1l-0.12.54a1.41,1.41,0,0,0-.27,0l-0.51.05a0.23,0.23,0,0,0-.13,0,5,5,0,0,0-.41.44,5.17,5.17,0,0,0-.29.46,3.45,3.45,0,0,0,.32.39c0.14,0.13.1,0.44,0.41,0.41A1.7,1.7,0,0,0,46,34.23l0.32,0.25a1.38,1.38,0,0,1,.12-0.29,0.48,0.48,0,0,1,.2,0l0.1-.31,0.38,0.33c0.13-.33.24-0.6,0.62-0.48,0-.07.06-0.13,0.08-0.2a0.61,0.61,0,0,1,.22.26V33.47a0.46,0.46,0,0,0,.23.14,0.4,0.4,0,0,0,0-.45A4.18,4.18,0,0,1,48,32.31Z"/><path class="cls-2" d="M44.13,46.8a5.34,5.34,0,0,1,.85,0c0.44,0.07.5,0.06,0.7-.34a0.43,0.43,0,0,0,0-.18,0.8,0.8,0,0,0-.21.16,0.57,0.57,0,0,1-.26.16,2.22,2.22,0,0,0-.47-0.05c-0.21.07-.46-0.35-0.63,0.06h0a0.49,0.49,0,0,0-.19.15,4.1,4.1,0,0,0-.2.73,0.44,0.44,0,0,1-.19.31,0.13,0.13,0,0,0,0,.16h0.22s0,0.49,0,.63C43.63,49,43.62,49.09,44,49c0,0,0,0,0,0s0-.19,0-0.28a3.9,3.9,0,0,0,0-.55c0-.19,0-0.2.22-0.19-0.09.21-.12,0.42,0.08,0.48l0.12,0.33,0.28-.18c-0.16.29-.16,0.33,0,0.49A0.78,0.78,0,0,0,45,48.59a0.76,0.76,0,0,1-.24-0.19,1.35,1.35,0,0,0-.26-0.67l0.37-.23L45,47.71l0.12-.21L45,47.42l0.08-.16a0.44,0.44,0,0,0-.18,0,0.93,0.93,0,0,1-.3.1,0.26,0.26,0,0,0-.3.14,0.19,0.19,0,0,1-.17,0A0.65,0.65,0,0,1,44,47.29C43.91,47.15,44,46.8,44.13,46.8Z"/><polygon class="cls-2" points="39.08 49.29 39.09 49.29 39.09 49.28 39.08 49.29"/><path class="cls-2" d="M44.28,40.41c-0.06-.16-0.11-0.33-0.15-0.47A0.49,0.49,0,0,0,44,39.86c-0.1,0,0,0,0,.13v0.81a2.42,2.42,0,0,1-.37-0.14,1,1,0,0,0,.25.82s0,0,0,.07,0,0.15.08,0.27l-0.33-.18c0.12,0.15.2,0.25,0.27,0.35s0.13,0.23.2,0.36A0.32,0.32,0,0,0,44,41.81c0.12-.08.12-0.08,0.33,0.14l0.09-.11L44.54,42l0,0-0.09-.21,0,0,0.18,0.21H44.65l0.14,0.44L45,42.46l0-.53-0.23-.14,0,0,0.34,0L45,41.55l0,0.12-0.83-.22v0l0.25-.08a2.08,2.08,0,0,1-.24-0.11,0.2,0.2,0,0,1-.1-0.11,0.39,0.39,0,0,1,.08-0.24A0.47,0.47,0,0,0,44.28,40.41Z"/><path class="cls-2" d="M45.55,42.35a0.19,0.19,0,0,0-.24-0.18H45.14c-0.13.23,0.31,0.21,0.18,0.45l-0.13-.12a0.37,0.37,0,0,0,0,.19,0.75,0.75,0,0,1,.15.43,0.37,0.37,0,0,1,.31.42l-0.24-.06-0.19.37C45,43.6,45,43.6,44.8,43.84a0.11,0.11,0,0,1-.07,0c-0.11,0-.19,0-0.19.15s0,0.18,0,.27a0.18,0.18,0,0,0,.08.06L44.74,44l0,0.21,0.33-.2a0.5,0.5,0,0,1,.08.24,0.4,0.4,0,0,0,.25.47l0.28,0.19c0-.13.19-0.3,0-0.48a0.27,0.27,0,0,1,0-.12,0.36,0.36,0,0,1,.13.07,1.21,1.21,0,0,1,.09.24,1.36,1.36,0,0,0,0-.85,4.2,4.2,0,0,1-.19-0.63L45.64,43l-0.13.11,0-.37,0.16,0Z"/><polygon class="cls-2" points="45.34 43.12 45.34 43.12 45.33 43.12 45.34 43.12"/><path class="cls-2" d="M48.3,30l-0.16,0-0.08.31h0L48,30l-0.15.22-1.27-.65L47,30.44l-0.37,0,0.14,0.18-0.15.12a2,2,0,0,1,.21.2,2.44,2.44,0,0,1,.16.28l0.25-.2-0.36-.21a0.56,0.56,0,0,1,.23,0,2.14,2.14,0,0,1,.32,0,3.63,3.63,0,0,1,.42.15c0-.3,0-0.29.26-0.36a0.75,0.75,0,0,0,.2-0.12C48.06,30.29,48.16,30.14,48.3,30Z"/><path class="cls-2" d="M30.6,43.44c-0.1-.18-0.25-0.24-0.34-0.16l0.06,0.2-0.13,0a0.27,0.27,0,0,1,.08.11,1.15,1.15,0,0,0-.07.26,4.58,4.58,0,0,0,.14.72,0.28,0.28,0,0,0,.22.13A0.48,0.48,0,0,0,30.94,44Z"/><path class="cls-2" d="M45.1,42.68l-0.32.11v-0.2l-0.42-.15,0,0.53,0.33,0a0.71,0.71,0,0,0-.14.32,0.87,0.87,0,0,0,.26.26L45,43.28a0.46,0.46,0,0,0,.21,0,0.71,0.71,0,0,0,.13-0.2C45.06,43.1,45.11,42.88,45.1,42.68Z"/><path class="cls-2" d="M45.34,43.12h0Z"/><path class="cls-2" d="M43.44,37.31a0.62,0.62,0,0,0-.19.13,0.75,0.75,0,0,0,.05,1,0.83,0.83,0,0,1,.07.14h0a0.6,0.6,0,0,1,0-.2,1.53,1.53,0,0,0,.11-0.88A0.58,0.58,0,0,0,43.44,37.31Z"/><path class="cls-2" d="M40.29,39.36a0.51,0.51,0,0,0-.21,0,0.67,0.67,0,0,0-.16,0l0-.06c-0.08.07-.15,0.15-0.24,0.21a0.25,0.25,0,0,0,0,.37,0.43,0.43,0,0,0,.29.14,0.29,0.29,0,0,0,.31-0.25c0-.08,0-0.15.07-0.23A0.44,0.44,0,0,0,40.29,39.36Z"/><path class="cls-2" d="M45.61,50.29a1.12,1.12,0,0,0-.72.71,0.66,0.66,0,0,0,.53-0.23,1.22,1.22,0,0,1,.29-0.21c0.19-.1.4-0.19,0.59-0.28l0-.09A1.38,1.38,0,0,0,45.61,50.29Z"/><path class="cls-2" d="M46.33,47.08s0.06,0.26.23,0.23l0.19,0C46.6,47,46.6,47,46.69,46.86L47,46.94l-0.19-.21,0.15-.33-0.05,0-0.22.11,0-.35a1.23,1.23,0,0,0-.18.83s0.13,0,.15-0.07-0.32,0,.14,0v0.17H46.33Z"/><path class="cls-2" d="M47.47,48.18a1,1,0,0,0-.79-0.06,1.07,1.07,0,0,0-.2.1l0.16,0.23a0.72,0.72,0,0,1,.92,0l0.07-.05A0.66,0.66,0,0,0,47.47,48.18Z"/><path class="cls-2" d="M42.85,43.81l0.06,0,0.82-.91c-0.21,0-.07-0.22-0.17-0.3a3.46,3.46,0,0,1-.22.48c-0.1.15-.24,0.26-0.35,0.41A1.65,1.65,0,0,0,42.85,43.81Z"/><path class="cls-2" d="M14.19,33.68a4.81,4.81,0,0,0,.35-0.38l-0.76.23C13.89,33.76,14,33.81,14.19,33.68Z"/><path class="cls-2" d="M43.42,50.66c0.13,0.09.25,0.18,0.37,0.25a0.37,0.37,0,0,0,.2,0,0.17,0.17,0,0,0,0-.13A0.38,0.38,0,0,0,43.42,50.66Z"/><path class="cls-2" d="M45.53,50H44.75s0,0.14-.07.2-0.31,0-.46,0a1.61,1.61,0,0,0-.4,0,0.7,0.7,0,0,1-.35,0c-0.17,0-.37-0.27-0.57,0a0.23,0.23,0,0,1-.2,0,0.14,0.14,0,0,0-.24.07,0.56,0.56,0,0,1-.1.11c0-.22,0-0.26-0.23-0.25A0.21,0.21,0,0,1,42,50c0-.17-0.15-0.11-0.25-0.1s-0.28.07-.29-0.14l0.44-.1V49.64a1.65,1.65,0,0,1-1-.15,0.88,0.88,0,0,1-.39.14,0.83,0.83,0,0,1-.53-0.18,0.94,0.94,0,0,0-.83-0.15c0,0.13,0,.28-0.24.26a0.25,0.25,0,0,0,.14.08c0.12,0,.26,0,0.26.17a0.09,0.09,0,0,0,.06,0L40.18,50l0.29,0.07L41.1,50.2l0.47,0.08L42,50.38l0-.15,0,0,0.19,0.17a2.08,2.08,0,0,0,1.37,0,1.7,1.7,0,0,0,1.17,0c0.27,0,.53-0.13.8-0.16C45.54,50.12,45.54,50,45.53,50Z"/><path class="cls-2" d="M46,48.2a0.23,0.23,0,0,0,.25.26,0.25,0.25,0,0,0,.16-0.15C46.3,48.12,46.14,48.15,46,48.2Z"/><path class="cls-2" d="M34.48,42.61a1.38,1.38,0,0,0,.12-0.79H34.52Z"/><path class="cls-2" d="M46,47.9l0-.2-0.37-.06c-0.22,0-.22-0.05-0.24.13a1,1,0,0,1,.32,0A0.84,0.84,0,0,1,46,47.9Z"/><path class="cls-2" d="M39.91,48a1.06,1.06,0,0,0-.26,0v0.15l0.29,0A0.52,0.52,0,0,0,39.91,48Z"/><path class="cls-2" d="M36.84,47.71c0.11-.13.11-0.14-0.1-0.41A0.33,0.33,0,0,0,36.84,47.71Z"/><path class="cls-2" d="M36.19,46.47l0.26,0.38C36.47,46.53,36.4,46.44,36.19,46.47Z"/><path class="cls-2" d="M48.64,29.59l-0.19.09,0,0.16,0,0,0.29-.21a0.07,0.07,0,0,0,0-.06A0.15,0.15,0,0,0,48.64,29.59Z"/><path class="cls-2" d="M49.42,27.92l0.06,0V27.57a3.06,3.06,0,0,0-.18.25A0.72,0.72,0,0,0,49.42,27.92Z"/><path class="cls-2" d="M46.38,47.66l0.31,0,0-.07-0.25-.15Z"/><path class="cls-2" d="M46.13,49.88L45.75,50C45.88,50,46.07,50.17,46.13,49.88Z"/><path class="cls-2" d="M24,18.11a2.14,2.14,0,0,1,.62,0c0.31,0,.61.12,0.91,0.17a2.87,2.87,0,0,0,.42,0V18.23a0.33,0.33,0,0,1-.14-0.1c0-.16-0.12-0.16-0.23-0.17s-0.34,0-.5,0a0.44,0.44,0,0,1-.15-0.11l0-.05a1.64,1.64,0,0,0-1.11,0l0.09,0.05-0.27.11A0.84,0.84,0,0,0,24,18.11Z"/><path class="cls-2" d="M35.5,19.29a3.57,3.57,0,0,0,.51.16,0.68,0.68,0,0,0,.25,0c0.2,0,.4-0.07.6-0.1v0a1.33,1.33,0,0,0,.28,0,0.64,0.64,0,0,0,.18-0.12,0.46,0.46,0,0,0-.18-0.12A3.19,3.19,0,0,0,36,19.11a0.18,0.18,0,0,1-.08,0A1,1,0,0,0,35.64,19a1.13,1.13,0,0,0-.26.06A0.47,0.47,0,0,0,35.5,19.29Z"/><path class="cls-2" d="M27.32,18.34l-0.19-.07c-0.23-.06-0.46-0.1-0.69-0.16s-0.33,0-.31.25a1.1,1.1,0,0,1,0,.17l1.19-.12V18.34Z"/><path class="cls-2" d="M48.07,20.54c-0.46-.2-0.73-0.2-0.89,0A1,1,0,0,0,48.07,20.54Z"/><path class="cls-2" d="M38.78,19.4V19.33l-1.17-.1v0.08A2.23,2.23,0,0,0,38.78,19.4Z"/><path class="cls-2" d="M36.91,19.86l1,0.07V19.87l-0.57-.18A0.38,0.38,0,0,0,36.91,19.86Z"/></svg>