<svg id="Layer_1" data-name="Layer 1" xmlns="http://www.w3.org/2000/svg" viewBox="0 0 67 67"><defs><style>.cls-1{fill:none;stroke:#cbcbcb;stroke-miterlimit:10;}.cls-2{fill:#989898;}</style></defs><title>mynomad</title><circle class="cls-1" cx="33.62" cy="33.5" r="26.25"/><path class="cls-2" d="M36.21,27.24l0.14-.18a0.26,0.26,0,0,1,.13.37,1.11,1.11,0,0,0-.08.24,0.47,0.47,0,0,0,0,.22,1,1,0,0,1,.11.16,0.64,0.64,0,0,0,.17.46,2.86,2.86,0,0,1,.33.55,0.09,0.09,0,0,0,.05,0,0.15,0.15,0,0,1,.14.2,0.85,0.85,0,0,1-.11.23l0.12,0.14-0.25,0c0.09,0.14.18,0.3,0.29,0.45s0.13,0.16,0,.26a0.1,0.1,0,0,0,0,.08,0.21,0.21,0,0,0,.34.08A0.31,0.31,0,0,1,38,30.55a0.19,0.19,0,0,0,.16-0.06,0.16,0.16,0,0,0,0-.14,0.38,0.38,0,0,1,.23-0.59c0-.11,0-0.15.11-0.16l0.34,0a0.88,0.88,0,0,1,.21,0c0.2,0,.21,0,0.24-0.17a0.8,0.8,0,0,1,.16-0.54,0.19,0.19,0,0,0,0-.11c0-.17,0-0.34,0-0.51a0.39,0.39,0,0,1,0-.11,0.15,0.15,0,0,0,0-.09,0.51,0.51,0,0,1,0-.51c-0.07-.1-0.24.48-0.17-0.52h0.19s-0.25,0,0-.18a0.16,0.16,0,0,0-.13,0c-0.14,0-.16,0-0.15-0.08s-0.12-.09-0.16-0.13l0.19-.06h0.07a3.66,3.66,0,0,0,.49-0.19v0l0.11-.45c-0.15,0-.31.13-0.34-0.1-0.2,0-.4,0-0.59,0a0.38,0.38,0,0,1-.14-0.11A0.87,0.87,0,0,1,39,25.58a0.45,0.45,0,0,0,.14,0c0.08-.19.15-0.05,0.23,0,0.14-.19.27-0.06,0.41,0a0.41,0.41,0,0,0-.06-0.2c-0.11-.06-0.09-0.13,0-0.17a0.25,0.25,0,0,1,.21,0,0.49,0.49,0,0,1,.15.43,3.06,3.06,0,0,0,.64-0.55,2.87,2.87,0,0,1-.87-0.8l-0.15,0c-0.11,0-.24,0-0.24-0.14a0.86,0.86,0,0,0-.06-0.26,0.84,0.84,0,0,1-.06-0.45,0.26,0.26,0,0,0,0-.25c-0.11-.17-0.09-0.23.06-0.29l0-.31c0-.13.09-0.27-0.09-0.37S39.4,22,39.5,22,39,22,40,21.95V21.59s-0.09,0,0-.07c-0.12-.07-0.32-0.12-0.15-0.2s0,0,0-.07C39.9,21,39.9,21,40.11,21c0.11-.13-0.09-0.47.2-0.45l0.19-.12a1.36,1.36,0,0,0,.1-0.11l0.14-.13a0.3,0.3,0,0,0,.08-0.11,1.12,1.12,0,0,1,.2-0.55c0.1-.11.09-0.16,0-0.24-0.29-.18-0.29-0.31-0.07-0.55a0.15,0.15,0,0,0,0-.26c-0.12-.08-0.12-0.15,0-0.22a1.06,1.06,0,0,1,.19-0.05A3,3,0,0,1,40.94,18,0.24,0.24,0,0,1,41,17.87L41.17,18l0-.33,0.17,0.05,0.14,0.09a0.53,0.53,0,0,1,.15-0.19,1.74,1.74,0,0,1,.36,0,0.33,0.33,0,0,1,.24-0.12,0.71,0.71,0,0,1,.22.21,0.29,0.29,0,0,1,.34.14,2.47,2.47,0,0,1,.05.36,0.58,0.58,0,0,1,.18.17,0.18,0.18,0,0,1-.14.21,0.42,0.42,0,0,0-.31.45,0.36,0.36,0,0,1-.07.18,1,1,0,0,1-.18.44,0.07,0.07,0,0,0,0,0,0.16,0.16,0,0,1-.09.22,0.28,0.28,0,0,0-.19.26c0,0.09,0,.21-0.16.16a0.67,0.67,0,0,0,0,.25c0.06,0.17,0,.23-0.16.25l0,0.18-0.17-.15L41.41,21c0.23,0.1.24,0.16,0.07,0.33l-0.09.09a0.14,0.14,0,0,0,0,.22,0.4,0.4,0,0,1,0,.19,0.53,0.53,0,0,1,.13.24,1.42,1.42,0,0,0,0,.29,2.06,2.06,0,0,0,.29.43c0.1,0.12.07,0.18-.06,0.23a0.43,0.43,0,0,1,0,.55L42,24l0.16-.09a0.42,0.42,0,0,0,.52.13l0.08,0.17L42.9,24a1,1,0,0,1,0,.15c0,0.07,0,.14,0,0.21l0.21,0a0.37,0.37,0,0,0,.1-0.07l0.07,0.18a1.83,1.83,0,0,1,.24-0.18c0.08,0,.21,0,0.21-0.16a0.14,0.14,0,0,1,.07,0L44,24l0.06,0a0.17,0.17,0,0,0,.19-0.09c0.06-.19.06-0.19,0.23-0.1l0.09,0-0.14-.25,0.25-.08,0.12-.19L45,23.5l0.22-.27a0.48,0.48,0,0,0,.24.08,0.45,0.45,0,0,0,.11-0.21l0-.07a9.32,9.32,0,0,0,.5-1c0.22-.56.4-1.13,0.58-1.7,0.12-.38.09-0.43-0.23-0.61s-0.47-.26-0.71-0.38c-0.08,0-.13-0.08-0.07-0.18a1.29,1.29,0,0,0,.11-0.28c0-.18,0-0.27-0.15-0.29a0.3,0.3,0,0,1-.28-0.44c-0.41-.22-0.44-0.25-0.31-0.48-0.22,0-.16-0.17-0.17-0.3a0.4,0.4,0,0,0,0-.18c-0.09-.14,0-0.2.12-0.2a1.79,1.79,0,0,0-.11-0.18c-0.23-.29-0.45-0.59-0.7-0.87A0.38,0.38,0,0,1,44,15.59c0-.18.09-0.35,0.15-0.52s0.05-.27-0.13-0.32a0.27,0.27,0,0,1-.13-0.12,0.42,0.42,0,0,0-.37-0.18,0.24,0.24,0,0,1-.17-0.1,0.57,0.57,0,0,1-.12-0.51,0.43,0.43,0,0,0,0-.15l-0.22,0,0.15-.25h0a1,1,0,0,1,0-.32A0.25,0.25,0,0,0,43,12.72c-0.07,0-.16-0.27-0.23-0.31A2.45,2.45,0,0,0,42.5,12h0a2.39,2.39,0,0,0-.07.27c-0.09.12-.16,0.37-0.36,0.28a0.19,0.19,0,0,0,0,.07,1.93,1.93,0,0,0-.11.51,6.14,6.14,0,0,0,.13.67A0.22,0.22,0,0,1,42,14c-0.16,0-.15.09-0.13,0.21a0.33,0.33,0,0,1-.09.21,0.37,0.37,0,0,1-.15,0l-0.33-.15v0.06a0.91,0.91,0,0,1-.26.2,1.15,1.15,0,0,1-.39,0,0.18,0.18,0,0,1-.1-0.09c-0.09-.14-0.18-0.29-0.28-0.43A0.94,0.94,0,0,0,40,13.8a0.58,0.58,0,0,1-.13.46l-0.24-.06a0.37,0.37,0,0,1,0,.53l0.06,0.07c0.12,0.1.12,0.19,0,.25a0.48,0.48,0,0,1-.26,0l-0.61-.13c0,0.13.06,0.22,0.07,0.3a1.5,1.5,0,0,1,0,.26,0.14,0.14,0,0,1-.21.13c-0.21-.08-0.21-0.08-0.32.13,0,0.06,0,.13-0.06.2a0.55,0.55,0,0,1-.11.26c-0.13.09-.09,0.16,0,0.23a0.29,0.29,0,0,1,0,.4c-0.1.18-.22,0.35-0.33,0.53a0.17,0.17,0,0,0,0,.14,0.15,0.15,0,0,1-.06.25L37.51,18a2.41,2.41,0,0,1-.33,1.73l0.14,0.08a0.47,0.47,0,0,1,.11.52,0.26,0.26,0,0,1-.36.12,0.65,0.65,0,0,0-.63.54c0,0.2,0,.4,0,0.6a1.92,1.92,0,0,0-.05.23,0.85,0.85,0,0,0,.14.6,0.13,0.13,0,0,1,0,.09c0,0.13,0,.27-0.05.4a0.28,0.28,0,0,0,.09.34c0.37,0.21.37,0.23,0.26,0.62a0.22,0.22,0,0,1,0,.07,0.19,0.19,0,0,1-.07.06c-0.19.08-.21,0.1-0.09,0.26a1.36,1.36,0,0,1,.08.89,0.17,0.17,0,0,1-.06.07c-0.1.12-.33,0.15-0.28,0.38h0a0.23,0.23,0,0,0-.07.31,1,1,0,0,1,0,.37,0.62,0.62,0,0,1-.15.28A0.48,0.48,0,0,1,36,26.52a2.26,2.26,0,0,1,0,.5C36.06,27.16,36.07,27.23,36.21,27.24Z"/><path class="cls-2" d="M51.47,40.56c0-.17-0.15-0.21-0.29-0.11a0.7,0.7,0,0,1-.12.11,1,1,0,0,1-.37.24,0.87,0.87,0,0,1-.58-0.34,0.65,0.65,0,0,0,0-.24,2.23,2.23,0,0,1-.1-0.3c0-.17,0-0.34,0-0.51a1,1,0,0,0-.49-0.71,2.56,2.56,0,0,1-.78-0.81,0.58,0.58,0,0,0-.23-0.2,0.32,0.32,0,0,0-.35.17c0.08,0.16,0,.21-0.13.26s-0.35.12-.53,0.18a0.3,0.3,0,0,0-.15.13c-0.12.25-.2,0.27-0.41,0.09a0.19,0.19,0,0,0-.29,0,0.27,0.27,0,0,1-.17,0l-0.4,0h-0.4c-0.17.23-.22,0.24-0.31,0a0.49,0.49,0,0,1-.17,0c-0.11-.08-0.22-0.17-0.33-0.25a0.24,0.24,0,0,1-.05-0.4,0.26,0.26,0,0,0,0-.12c0-.15.05-0.3,0.08-0.46l0.14,0C45,37.13,45,37,44.92,36.83a0.22,0.22,0,0,1,0-.14c0.14-.29.28-0.58,0.43-0.86a0.7,0.7,0,0,1,.26-0.27c0.19-.1.21-0.14,0-0.3s-0.13-.15,0-0.24l-0.22-.16a1.32,1.32,0,0,1-.24-0.42,0.79,0.79,0,0,1-.08-0.56,0.24,0.24,0,0,0-.26-0.26c-0.16,0-.25-0.09-0.16-0.23A2,2,0,0,1,45,33a0.23,0.23,0,0,0,.1-0.27c-0.09-.22-0.19-0.44-0.29-0.66s-0.22-.45-0.34-0.68a0.41,0.41,0,0,0,.45,0,1.07,1.07,0,0,1,.26,0c0.18,0,.18-0.29.38-0.35a0.13,0.13,0,0,0,0,0l0.16-.18a0.46,0.46,0,0,0,.07-0.08,0.69,0.69,0,0,0,0-.45A0.32,0.32,0,0,1,46,30a0.22,0.22,0,0,0,.13-0.22,0.11,0.11,0,0,1,.13-0.12h0.16a0.35,0.35,0,0,0-.11-0.11c-0.14,0-.12-0.1-0.12-0.18a0.87,0.87,0,0,0,0-.16,0.69,0.69,0,0,1,.25-0.45,0.12,0.12,0,0,1,.09,0h0.22A1.88,1.88,0,0,1,47,28.32c0.15-.19.17-0.22,0-0.41a0.75,0.75,0,0,0-.32-0.33c-0.18,0-.14-0.08-0.11-0.19a0.18,0.18,0,0,0,0-.08L46.49,27l-0.37-.19a2,2,0,0,1,.05-0.38,0.27,0.27,0,0,0-.11-0.37A0.2,0.2,0,0,1,46,25.9a0.43,0.43,0,0,0-.1-0.4,0.29,0.29,0,0,1,0-.36,0.42,0.42,0,0,0,.08-0.33c0-.06,0-0.13,0-0.19l-0.13,0c-0.27,0-.53,0-0.8,0a0.58,0.58,0,0,0-.45.14,0.29,0.29,0,0,1-.14.07L43.9,25l-0.14.06,0.05,0.14a1.28,1.28,0,0,0-.39.26c0.21,0.08.22,0.11,0.15,0.3a0.25,0.25,0,0,0,0,.18c0.06,0.11.13,0.21,0.21,0.33l0.18,0a0.37,0.37,0,0,1,.06-0.11,0.15,0.15,0,0,1,.27.05,0.74,0.74,0,0,1,0,.36,0.58,0.58,0,0,0,.07.52,0.5,0.5,0,0,1-.13.75,0.36,0.36,0,0,1-.6-0.13,0.4,0.4,0,0,0-.24-0.26,0.3,0.3,0,0,1-.25-0.27,2,2,0,0,1-.27.18c-0.31.14-.26,0.27-0.26,0.54a0.52,0.52,0,0,1,0,.29,0.38,0.38,0,0,0-.07.49,0.32,0.32,0,0,1,0,.06,0.65,0.65,0,0,0,0,.2,4.27,4.27,0,0,0,.13.44c0.08,0.23.18,0.46,0.27,0.69h0a0.75,0.75,0,0,0,.66.13,0.37,0.37,0,0,1,.41.15,0.53,0.53,0,0,1,0,.28A1.18,1.18,0,0,0,44,31c0.07,0.22.07,0.22-.15,0.29l-0.15,0a5.56,5.56,0,0,1-1.5.13,1,1,0,0,0-.56.12A0.4,0.4,0,0,1,41,31.27a0.22,0.22,0,0,0-.3-0.18,1.55,1.55,0,0,0-.33.13,2.45,2.45,0,0,1-.43.24,0.46,0.46,0,0,0-.34.29,0.33,0.33,0,0,1-.24.18,3.86,3.86,0,0,0-1.11.43,3,3,0,0,1-.3.05v0.21a0.09,0.09,0,0,1-.1,0,3,3,0,0,1-.24-0.38,0.55,0.55,0,0,1-.37-0.35L37,31.82c-0.17.15-.19,0.46-0.52,0.36a0.26,0.26,0,0,0-.11.11s0,0.08-.06.11a0.39,0.39,0,0,1-.16.15A0.43,0.43,0,0,1,36,32.42h0c-0.09,0-.2.09-0.26,0a0.35,0.35,0,0,1,.09-0.22A2.09,2.09,0,0,1,36,32l0-.07a0.27,0.27,0,0,1-.46,0L35.36,32l-0.09-.12L35,31.81l0.17-.13c0-.29-0.29-0.18-0.43-0.29l0.16-.18-0.16-.06L34.92,31a0.14,0.14,0,0,0,0-.09c0-.09-0.07-0.18-0.09-0.28a0.11,0.11,0,0,1,0-.09,0.4,0.4,0,0,1,.1,0l-0.11-.16a0.31,0.31,0,0,1,.14,0,0.19,0.19,0,0,0,.28-0.19,2.94,2.94,0,0,1,0-.3,0.62,0.62,0,0,1,.07-0.15l0.16,0.09a0.33,0.33,0,0,1,.06.08l0.19-.37a0.59,0.59,0,0,1-.53-0.28l0.08-.29-0.27-.08L35,29l-0.12-.09a0.46,0.46,0,0,0,0,.14c0,0.12,0,.25,0,0.37-0.29,0-.3,0-0.24-0.23a0.53,0.53,0,0,1-.49.24,0.69,0.69,0,0,0,0,.25c0,0.13.11,0.26,0.15,0.39s0.08,0.24-.12.24a0.09,0.09,0,0,0-.05,0c-0.08.13,0,.23,0.14,0.23a0.19,0.19,0,0,1,.22.23,2.87,2.87,0,0,0,0,.38,1.4,1.4,0,0,0,.08.35c0,0.13.28,0.22,0.09,0.41h0a0.46,0.46,0,0,1,0,.43,1.14,1.14,0,0,1,.33.22,0.48,0.48,0,0,0,.25.25,0.44,0.44,0,0,1,0,.19A0.32,0.32,0,0,1,35,33a1.13,1.13,0,0,1-.19-0.28c-0.05-.11-0.09-0.18-0.24-0.13a0.85,0.85,0,0,1-.29,0,3.31,3.31,0,0,1,0,.41,0.26,0.26,0,0,1-.1.19,0.27,0.27,0,0,1-.21-0.1,1.75,1.75,0,0,1-.15-0.34,0.89,0.89,0,0,1-.33,0,0.16,0.16,0,0,0-.2.09,1.82,1.82,0,0,0-.11.28L33,33A0.38,0.38,0,0,0,32.81,33a4.3,4.3,0,0,0-.59.15,0.52,0.52,0,0,0-.23.17,0.39,0.39,0,0,1-.38.2,0.12,0.12,0,0,0-.15.14,1.12,1.12,0,0,1-.31.77,0.49,0.49,0,0,0-.18.19,0.27,0.27,0,0,1-.15.27A0.39,0.39,0,0,1,31,35a1.72,1.72,0,0,1,.08.41,0.17,0.17,0,0,1-.09.08,0.37,0.37,0,0,0-.38-0.09l0,0a0.34,0.34,0,0,0-.46,0,1.34,1.34,0,0,1-.69.25,1.82,1.82,0,0,0-.29,0,0.2,0.2,0,0,0-.19.23c0,0.2,0,.4,0,0.59a0.16,0.16,0,0,1-.06.12,4.21,4.21,0,0,1-.53.22c-0.17.05-.35,0.06-0.52,0.12a0.16,0.16,0,0,0-.1.28,0.11,0.11,0,0,1,0,.1c-0.06,0-.13.06-0.19,0.11a0.21,0.21,0,0,1-.29,0,0.58,0.58,0,0,0-.47-0.14,0.28,0.28,0,0,1-.18,0A1.67,1.67,0,0,0,26.5,37H26.23s-0.06.08,0,.18a0.29,0.29,0,0,1,.11.2,2.45,2.45,0,0,1-.1.43,0.77,0.77,0,0,1,.12.13,0.17,0.17,0,0,1,0,.13,0.11,0.11,0,0,1-.09,0L26,38a0.29,0.29,0,0,1-.23.08,0.55,0.55,0,0,1-.14-0.22l-0.31.17a1,1,0,0,1-.12-0.26,0.37,0.37,0,0,0-.21-0.17c-0.07-.12-0.14-0.09-0.22,0a0.17,0.17,0,0,1-.09.06H24.4l-0.08-.08a0.88,0.88,0,0,1-.27,0,0.28,0.28,0,0,0-.34.19l0.19,0c0.14,0,.14,0,0.17.11a0.14,0.14,0,0,0,0,.05l0.16,0.14-0.27,0v0.19H23.87l0,0.24h0c0.14-.14.2-0.13,0.3,0a0.18,0.18,0,0,0,.06,0l0.25,0.15c0.2-.07.28,0,0.31,0.2,0.09,0,.31-0.09.24,0.17,0.37,0,.33.13,0.17,0.35l0.13,0,0,0a1.43,1.43,0,0,0,.15.15c0.09,0.07.12,0.14,0,.22L25.46,40a1.2,1.2,0,0,1,.17.23c0.05,0.13,0,.31.24,0.31h0l0.32,0.23,0,0.55a0.15,0.15,0,0,1,0,.25,0.52,0.52,0,0,1,.2.48,0.2,0.2,0,0,0,.08.24,0.18,0.18,0,0,1,0,.16,0.39,0.39,0,0,1-.14.11l-0.24-.81H26l-0.19.73a0.69,0.69,0,0,1,.13.11,0.15,0.15,0,0,1,0,.12,0.1,0.1,0,0,1-.09.05c-0.1,0-.11,0-0.13.09-0.1.33-.18,0.67-0.3,1a0.53,0.53,0,0,1-.23.27,1,1,0,0,1-1-.17,0.21,0.21,0,0,0-.12,0c-0.07.22-.18,0.07-0.25,0a0.46,0.46,0,0,1-.26-0.21,0.31,0.31,0,0,0-.27,0,0.79,0.79,0,0,1-.68,0c-0.18-.07-0.34-0.19-0.52-0.25a0.67,0.67,0,0,1-.41-0.22l-0.63,0a0.45,0.45,0,0,0-.42,0,0.08,0.08,0,0,1-.07,0l-0.19-.23-0.17-.25c-0.22.19-.25,0.19-0.29,0-0.38.14-.76,0.29-1.15,0.42a0.12,0.12,0,0,0-.1.18c0,0.08,0,.19.18,0.13a0.13,0.13,0,0,1,.2.15,1.13,1.13,0,0,1-.1.28A0.43,0.43,0,0,1,19,44a0.49,0.49,0,0,1-.12.19,0.57,0.57,0,0,0-.12.13,0.21,0.21,0,0,1-.12.31l0.12,0.14-0.15.1a4,4,0,0,1,0,.86,0.14,0.14,0,0,0,0,.06,0.17,0.17,0,0,1-.13.23,0.57,0.57,0,0,0-.24.54l-0.15.19a2.54,2.54,0,0,1-.23.35,0.4,0.4,0,0,1-.31.26,2.39,2.39,0,0,1-.14.31,0.43,0.43,0,0,0,0,.58,0.48,0.48,0,0,1,.06.15l0.39-.08L18,48.63l-0.21.08,0,0.09a0.48,0.48,0,0,0-.11.41,0.25,0.25,0,0,1-.07.29,0.12,0.12,0,0,0,0,0l-0.14.33-0.09.18a1,1,0,0,1,.73.22,0.31,0.31,0,0,0,.38,0,0.46,0.46,0,0,1,.23-0.07,1,1,0,0,1,1,.67l0,0,0.16,0a0.79,0.79,0,0,1-.1.17,0.68,0.68,0,0,1-.16.1c0.09,0.11.3,0.17,0.12,0.35a0.11,0.11,0,0,0,0,.09L20,51.8a0.25,0.25,0,0,0,.45,0,0.38,0.38,0,0,1,.49-0.2,0.31,0.31,0,0,0,.37-0.1,0.21,0.21,0,0,1,.15-0.08,1.86,1.86,0,0,1,.88.17,0.2,0.2,0,0,0,.16,0,0.49,0.49,0,0,1,.41.07,0.24,0.24,0,0,0,.17,0,0.3,0.3,0,0,1,.44,0,0.16,0.16,0,0,0,.15,0,3.44,3.44,0,0,0,.24-0.34,0.83,0.83,0,0,1,.72-0.42A2.88,2.88,0,0,1,25,51a0.19,0.19,0,0,1-.06-0.29,0.5,0.5,0,0,0,.25-0.36,0.32,0.32,0,0,1,.14-0.15A1.9,1.9,0,0,1,25.61,50c0.14-.07.28-0.13,0.45-0.2l-0.12-.09a0.78,0.78,0,0,1-.22-0.94,6.07,6.07,0,0,1,.5-0.6l0.3-.33,0.32-.3c-0.06-.1,0-0.14.09-0.25a1.22,1.22,0,0,1,.69-0.22,0.83,0.83,0,0,0,.7-0.25,0.32,0.32,0,0,1,.14-0.08l0.48-.19c0.25-.11.28-0.16,0.22-0.41a0.13,0.13,0,0,1,.1-0.19,0.4,0.4,0,0,0,.09-0.06,0.59,0.59,0,0,1-.22-0.46,0.41,0.41,0,0,1,.06-0.34s0,0,0-.06a0.54,0.54,0,0,1,.19-0.21,0.84,0.84,0,0,0,.44-0.26,0.23,0.23,0,0,1,.28-0.08c0.15,0.07.3,0.12,0.42,0.16l0.17-.13a0.66,0.66,0,0,0,.11.14,0.81,0.81,0,0,1,.2.11V44.51a0.75,0.75,0,0,0,.18.13,1.42,1.42,0,0,1,.11.28,0.15,0.15,0,0,0,0,.08l0.56,0.15a0.16,0.16,0,0,0,.08,0l0.25-.1a0.44,0.44,0,0,1,.25-0.27,0.17,0.17,0,0,0,.05-0.15,0.16,0.16,0,0,1,0-.25,0.21,0.21,0,0,1,.29,0,0.18,0.18,0,0,0,.13,0l0.36-.08a0.48,0.48,0,0,0,.22-0.08c0.11-.11.19-0.26,0.3-0.37a0.65,0.65,0,0,1,.37-0.24,1,1,0,0,1,.65.28,0.34,0.34,0,0,0,.2.12,0.43,0.43,0,0,1,.46.4,1.94,1.94,0,0,0,.14.44,0.58,0.58,0,0,1,.07.54c0.15,0,.26,0,0.23.15a0.71,0.71,0,0,1,.38.47,0.5,0.5,0,0,1,.5.34,0.38,0.38,0,0,0,.12.09l0.27,0.24c0.05,0.05.09,0.12,0.14,0.18a1.92,1.92,0,0,0,.18.16,0.34,0.34,0,0,0,.13.09,0.31,0.31,0,0,1,.3.26,0.49,0.49,0,0,1,.59-0.06,1.77,1.77,0,0,1,.42.47,0.36,0.36,0,0,1,.18,0,1.17,1.17,0,0,1,.18.21,0.49,0.49,0,0,1,.26,0,0.35,0.35,0,0,1,.19.48l0.25,0.12a0.34,0.34,0,0,0,.16,0,0.28,0.28,0,0,1,.39.25,1,1,0,0,0,.2.46,0.94,0.94,0,0,1,.1.27,1.23,1.23,0,0,0,.14.29,0.21,0.21,0,0,1-.11.35l-0.18.06a0.36,0.36,0,0,1-.07.5,0.2,0.2,0,0,0-.09.13,0.39,0.39,0,0,0,.17.18A0.16,0.16,0,0,0,41,51a0.7,0.7,0,0,1,.22-0.37,0.25,0.25,0,0,0,.12-0.31,0.29,0.29,0,0,1,.22-0.39l0.23-.07a0.14,0.14,0,0,0,.07-0.24,0.59,0.59,0,0,1-.08-0.17,0.47,0.47,0,0,0-.37-0.27c-0.12,0-.31-0.17-0.25-0.26a1.54,1.54,0,0,0,.12-0.41c0.05-.12.11-0.23,0.17-0.35a0.23,0.23,0,0,1,.38-0.11,0.65,0.65,0,0,0,.4.1c0.28,0,.28,0,0.37.27a0.31,0.31,0,0,0,.26.25,0.52,0.52,0,0,1,.06-0.22c0.1-.11,0-0.19,0-0.26a0.83,0.83,0,0,0-.16-0.11l-0.26-.25a0.4,0.4,0,0,0-.12-0.07c-0.16-.06-0.33-0.12-0.49-0.19s-0.23-.16-0.36-0.2-0.5-.13-0.74-0.21-0.38-.27-0.13-0.52h0l0-.12a0.43,0.43,0,0,0-.13,0,3.07,3.07,0,0,1-.5.08,1.17,1.17,0,0,1-.53-0.11A2.79,2.79,0,0,1,39,46a1,1,0,0,1-.23-0.27c-0.12-.27-0.21-0.55-0.33-0.82a0.68,0.68,0,0,0-.19-0.28c-0.19-.14-0.41-0.22-0.6-0.36a0.88,0.88,0,0,1-.51-0.6,1.14,1.14,0,0,0,0-.27,0.19,0.19,0,0,1,.11-0.25l0.13-.08A0.28,0.28,0,0,0,37.29,43a0.21,0.21,0,0,1-.19-0.22,0.81,0.81,0,0,1,0-.32,0.41,0.41,0,0,1,.18-0.06l0.07,0,0.38-.21a0.08,0.08,0,0,0,0,0C37.79,42,37.91,42,38,42a0.2,0.2,0,0,0,.09,0,0.18,0.18,0,0,1,.27.05,0.8,0.8,0,0,1,.06.29,0.38,0.38,0,0,1,.2-0.09,0.27,0.27,0,0,0,.39-0.2h0l0.09,0.12a0.21,0.21,0,0,0,.1.08h0.36a0.57,0.57,0,0,1,0-.07s0-.09,0-0.13a0.21,0.21,0,0,1,.18-0.23l0.15,0a0.67,0.67,0,0,0,0-.17c-0.11-.24-0.08-0.29.15-0.39a0.44,0.44,0,0,0,.26-0.2c0-.16.1-0.13,0.18-0.12a0.52,0.52,0,0,1,.24.08c0.18,0.13.35,0.28,0.53,0.43a0.59,0.59,0,0,0,.15.08,2,2,0,0,1,.25.09,0.59,0.59,0,0,0,.7-0.09,2,2,0,0,1,.41-0.23L43,41.19A0.64,0.64,0,0,1,43.23,41a0.34,0.34,0,0,0,.27,0c0.11,0,0,0,.13.08a0.83,0.83,0,0,1,.36.34v0.1c0,0.26.15,0.28,0.41,0.35L44.7,42c0.19,0.06.24,0.09,0.23,0.28s0,0.13.06,0.2a0.25,0.25,0,0,0,.17.14,0.31,0.31,0,0,1,.36.14l0,0-0.06-.37a0.88,0.88,0,0,1,.6.34l-0.27.11L46.1,43c-0.05.12,0,.3-0.18,0.35a0.11,0.11,0,0,0,0,.08,1.81,1.81,0,0,0,.05.23,0.74,0.74,0,0,0,.44.39,0.29,0.29,0,0,1,.15.2,0.55,0.55,0,0,1-.41.47c0.17,0.46.17,0.46,0.07,0.6a0.86,0.86,0,0,0,.26.15,0.43,0.43,0,0,1,.23.15,0.75,0.75,0,0,1,.16.62c0,0.1,0,.18-0.13.18,0,0.22-.07.3-0.25,0.31H46.23a0.23,0.23,0,0,0-.25.17,0.4,0.4,0,0,1-.19.19c-0.17.07-.35,0.12-0.53,0.17a0.31,0.31,0,0,1-.1.46,0.22,0.22,0,0,0-.06.14,0.36,0.36,0,0,1-.29.42l0,0c0,0.09.16,0.16,0,.3a0.32,0.32,0,0,1-.27.15,1,1,0,0,0,.12,0,0.18,0.18,0,0,1,.1.08,0.2,0.2,0,0,0,.15.19l0.3,0.21a0.11,0.11,0,0,1,.2,0,0.13,0.13,0,0,0,.12,0c0.06,0,.13-0.09.17,0a0.21,0.21,0,0,1-.09.18,1.13,1.13,0,0,1-.27.08,0.86,0.86,0,0,1,.38.53h0l0,0c0.09-.16.08-0.16,0.2,0a0.14,0.14,0,0,0,.13,0,0.62,0.62,0,0,1,.62-0.12l0.17-.26L47,49.84c0-.14.15-0.09,0.19,0a0.2,0.2,0,0,0,.27.09,0.21,0.21,0,0,1,.27.07,0.59,0.59,0,0,1-.16.21h0v0a1.24,1.24,0,0,0,.29-0.15,0.17,0.17,0,0,1,.28,0l0.35,0.29a0.69,0.69,0,0,1-.11-0.55c-0.15-.12-0.43.08-0.5-0.22-0.15.08-.25,0.06-0.26-0.06l-0.25-.11a0.48,0.48,0,0,0-.15,0h-0.4A2,2,0,0,1,47.29,49l-0.23-.12a0.72,0.72,0,0,1,.07-0.29,0.42,0.42,0,0,1,.23,0A0.71,0.71,0,0,1,47,48.19a0.4,0.4,0,0,0-.08-0.07,1.25,1.25,0,0,1-.26-0.35,0.4,0.4,0,0,0,0-.35,0.09,0.09,0,0,1,0,0A0.56,0.56,0,0,1,47,47.09l-0.06.28a0.41,0.41,0,0,0,.13.05,2.47,2.47,0,0,0,.47,0,0.27,0.27,0,0,0,.17-0.15,0.23,0.23,0,0,0-.09-0.19c-0.06,0-.14-0.08-0.09-0.16a0.21,0.21,0,0,1,.24-0.15,0.18,0.18,0,0,0,.28-0.14,0.23,0.23,0,0,1,.35-0.13,0.18,0.18,0,0,0,.14,0,0.64,0.64,0,0,0,.16-0.14A0.21,0.21,0,0,1,49,46.3a0.55,0.55,0,0,0,.4,0,2.06,2.06,0,0,1,.37,0,0.26,0.26,0,0,0,0-.27,0.22,0.22,0,0,1,.1-0.3c0.19-.11.19-0.19,0-0.3s-0.11,0-.16-0.07a0.18,0.18,0,0,1-.08-0.12,1,1,0,0,0,.23-0.33,0.17,0.17,0,0,1,.08-0.05,1.24,1.24,0,0,0,.23-0.13,0.28,0.28,0,0,1,.32-0.07l0.2,0.09L51,44.55a0.33,0.33,0,0,1-.14-0.1c-0.08-.22-0.26-0.16-0.45-0.17a1.87,1.87,0,0,1,.07-0.17l0.13-.2,0.15-.17a0.93,0.93,0,0,1,0-.66s0,0,0,0a0.38,0.38,0,0,1,.11-0.14,1.31,1.31,0,0,1,.27-0.07c0-.14,0-0.3-0.06-0.46a1,1,0,0,1,0-.87,0.06,0.06,0,0,0,0,0c-0.16,0-.17-0.06,0-0.26L50.89,41a0.86,0.86,0,0,1,.19-0.15,0.31,0.31,0,0,1,.14.09,0.45,0.45,0,0,0,.11.08c0.08-.05.25,0,0.23-0.16A2.84,2.84,0,0,0,51.47,40.56Z"/><path class="cls-2" d="M25.33,28l0.23-.14c0.19,0.32-.12.28-0.22,0.35l0.09,0.17-0.22,0,0,0.3,0.43-.2a0.78,0.78,0,0,1,0,.24,0.14,0.14,0,0,0,.09.2l0.08,0a0.53,0.53,0,0,1,.06.1,0.33,0.33,0,0,1-.12,0A0.86,0.86,0,0,1,25.55,29a0.39,0.39,0,0,0,0,.4,0.16,0.16,0,0,1,0,.15c-0.09.13-.2,0.24-0.3,0.37a0.66,0.66,0,0,0-.07.15l0.22,0.19a0.22,0.22,0,0,1,.07-0.1,0.23,0.23,0,0,1,.16.06,0.25,0.25,0,0,0,.24.08,1.06,1.06,0,0,1,.51-0.08l0.13,0.06a0.47,0.47,0,0,1-.08.13,0.33,0.33,0,0,1-.14,0,0.32,0.32,0,0,0-.23.44,1.21,1.21,0,0,1,0,.15l0,0,0.12,0.2,0.13-.09c0.23,0.13-.08.27,0,0.39l-0.19.11,0,0c0.14,0.1.13,0.12,0,.2a0.23,0.23,0,0,0-.1.13c0,0.12,0,.24-0.06.41l-0.18-.12a0.35,0.35,0,0,0-.11-0.06H25.62a0.38,0.38,0,0,0-.46.23,0.61,0.61,0,0,1,.2.54,1.08,1.08,0,0,1-.56.49l-0.56.09a0.24,0.24,0,0,0,.32.24c0.31,0,.31,0,0.37.27h0c0.24-.09.28-0.07,0.37,0.17a0.16,0.16,0,0,0,.27.1l0.19-.09,0.34-.11,0.16-.06,0,0.06-0.21.19a1.8,1.8,0,0,0-.32.3,0.24,0.24,0,0,1-.31.15c-0.1,0-.18-0.1-0.28-0.12a0.49,0.49,0,0,0-.32,0,0.34,0.34,0,0,1-.3.18,0.19,0.19,0,0,0,0,0,1.88,1.88,0,0,1-.18.23c-0.07.06-.16,0.1-0.23,0.16a0.75,0.75,0,0,1-.48.28l0.16,0.14a0.3,0.3,0,0,1,.28-0.18h0a0.52,0.52,0,0,1,.55,0,0.46,0.46,0,0,1,.17.15c0.11,0.11.17,0.1,0.23,0s0.08-.24.12-0.35a1.94,1.94,0,0,1,1,.21c0.14-.23.35,0,0.49-0.07l0-.21a0.57,0.57,0,0,0,.22.14,0.39,0.39,0,0,1,.3.09,0.43,0.43,0,0,0,.13,0,0.57,0.57,0,0,1,.53.1,0.19,0.19,0,0,0,.14,0l0.45-.14,0.35-.17,0-.19A0.61,0.61,0,0,1,28.27,35a1.1,1.1,0,0,1-.13-0.15l0.24-.09s0.07,0,.1,0l0.11,0-0.15-.15,0.17-.08a0.56,0.56,0,0,1,.14,0c0-.16,0-0.19.14-0.17a0.16,0.16,0,0,0,.13,0,2.3,2.3,0,0,0,.23-0.37A0.42,0.42,0,0,0,29,33.25l-0.21-.07a0.18,0.18,0,0,0-.26.09,0.15,0.15,0,0,1-.27,0,0.53,0.53,0,0,0,0-.07c-0.13-.11-0.11-0.23.05-0.29s0.18-.11.11-0.26-0.09-.14-0.12-0.21a0.24,0.24,0,0,1,0-.16c0.09-.09,0-0.16,0-0.24a0.29,0.29,0,0,1,0-.4,0.62,0.62,0,0,1-.17-0.22,0.54,0.54,0,0,0-.39-0.4,0.22,0.22,0,0,1-.11-0.11c0-.17,0-0.36-0.08-0.53a2.08,2.08,0,0,0-.15-0.75,1.29,1.29,0,0,0-.42-0.46,0.67,0.67,0,0,1-.22.08,0.85,0.85,0,0,1-.28-0.08,0.15,0.15,0,0,1-.06-0.12,0.12,0.12,0,0,1,.07-0.1L27,28.84l-0.12-.15H26.56a0.13,0.13,0,0,1,0-.07l0.25-.1h0a0.21,0.21,0,0,0,.26-0.09,4.12,4.12,0,0,0,.25-0.34c0.1-.15.18-0.3,0.28-0.45l0.14-.22-0.26-.15H27.43l-0.49-.12a0.51,0.51,0,0,0-.2,0,2.5,2.5,0,0,1-.34.08,0.23,0.23,0,0,1-.18-0.11,0.12,0.12,0,0,1,.1-0.19,0.11,0.11,0,0,0,.06,0,1.1,1.1,0,0,1,.15-0.18,3.15,3.15,0,0,1,.43-0.29,0.3,0.3,0,0,0,.19-0.32,0.89,0.89,0,0,0-.77,0l-0.25-.29a1.15,1.15,0,0,0,0,.33c0,0.12,0,.15-0.11.15a0.18,0.18,0,0,0-.17.19c0,0.18,0,.18-0.14.15l-0.19.1a4.48,4.48,0,0,1,.1.48,0.89,0.89,0,0,1-.07.22c0,0.23,0,.23-0.27.18h-0.1A0.39,0.39,0,0,0,25.33,28Z"/><path class="cls-2" d="M21.05,32.85c0.13,0,0,.13.06,0.15s0,0.16,0,.25l0.44,0.09a1.39,1.39,0,0,0,.22,0c0.06,0,.16,0,0.13-0.13a0.1,0.1,0,0,1,0-.08,0.26,0.26,0,0,1,.15,0,0.29,0.29,0,0,1,.07.1,0.35,0.35,0,0,1,.29-0.11,0.08,0.08,0,0,0,.06,0c0-.18.15-0.1,0.24-0.11a1,1,0,0,1,.17,0l0.45,0c0.11-.15.21-0.31,0.34-0.46a0.68,0.68,0,0,0,.15-0.69,0.11,0.11,0,0,1,0-.09,0.65,0.65,0,0,0,0-.57c0-.1,0-0.13.08-0.16a0.51,0.51,0,0,0,.25-0.15,0.26,0.26,0,0,1,.26-0.14,0.11,0.11,0,0,0,.14-0.12c0-.07,0-0.15,0-0.21l-0.25,0,0.15-.22a0.23,0.23,0,0,1-.11-0.33,0.14,0.14,0,0,0,0-.11,0.67,0.67,0,0,0-.46-0.1,0.48,0.48,0,0,0-.13.09,0.17,0.17,0,0,1-.13,0,0.13,0.13,0,0,0-.2,0,0.14,0.14,0,0,1-.13,0,0.15,0.15,0,0,1,0-.12,0.37,0.37,0,0,1,.08-0.1L23,29.45a2.24,2.24,0,0,1-.06.34c-0.06.18-.2,0-0.31,0.07L23,30a0.27,0.27,0,0,1-.28.22c-0.1,0-.2,0-0.13.17a0.33,0.33,0,0,1,0,.15l-0.3-.22c-0.12.14-.16,0.14-0.22,0a0.31,0.31,0,0,0-.39-0.2,1.2,1.2,0,0,0,0,.19,0.26,0.26,0,0,0,0,.17c0.11,0,.15.09,0.1,0.2a0.16,0.16,0,0,1-.22.08,0.14,0.14,0,0,0-.19.16H21.21v0l0.16,0c0.1,0,.24,0,0.23.17s0.08,0.17.2,0.16a0.23,0.23,0,0,1,.29.19l-0.35.08a0.14,0.14,0,0,0-.08,0l-0.23.41L21.71,32a0.17,0.17,0,0,1,.12,0,1.51,1.51,0,0,1,.16.21,0.5,0.5,0,0,1-.19.05,1,1,0,0,0-.72,0l0.11,0.2a0.7,0.7,0,0,1-.27.18,0.33,0.33,0,0,0-.34.22h0.26C20.91,32.87,21,32.85,21.05,32.85Z"/><path class="cls-2" d="M40.39,50.87a0.82,0.82,0,0,1-.18.12,0.46,0.46,0,0,1-.29,0,0.17,0.17,0,0,0-.24,0,0.49,0.49,0,0,1-.38.14,0.93,0.93,0,0,0-.3,0,0.62,0.62,0,0,1-.63-0.14c-0.06-.06-0.11-0.09-0.16,0a0.27,0.27,0,0,1-.16.15,0.65,0.65,0,0,1-.25-0.08h0a0.26,0.26,0,0,0-.14.33,0.22,0.22,0,0,0,.32.17,0.13,0.13,0,0,1,.1,0,3.87,3.87,0,0,1,.65.33,0.62,0.62,0,0,0,.41.14,0.35,0.35,0,0,1,.38.22,0.31,0.31,0,0,0,.29.2,2,2,0,0,0,.27,0l0.18-.34a0.63,0.63,0,0,1-.12-0.69C40.22,51.33,40.29,51.11,40.39,50.87Z"/><path class="cls-2" d="M34.74,47.83l0.14-.11a0.31,0.31,0,0,0-.48,0l-0.06.06a0.62,0.62,0,0,1-.71.18,0.48,0.48,0,0,0,0,.2,0.73,0.73,0,0,1,.18.83c0.14,0,.19.11,0.07,0.23a0.15,0.15,0,0,0,0,.07,3.3,3.3,0,0,0-.08.39,0.44,0.44,0,0,0,0,.23,3,3,0,0,0,.21.31c0.2,0,.27-0.15.21-0.45a0.67,0.67,0,0,1,.5.12,0.16,0.16,0,0,0,0-.05q0.06-.48.12-1a0.06,0.06,0,0,0,0,0c-0.16-.13-0.05-0.24,0-0.34a0.2,0.2,0,0,0,0-.33A1.52,1.52,0,0,1,34.74,47.83Z"/><path class="cls-2" d="M47.61,50.51l0,0c-0.18-.09-0.35-0.18-0.54-0.26a3.63,3.63,0,0,0-.53-0.16,0.2,0.2,0,0,0-.17.05,0.21,0.21,0,0,1-.32.17l-0.14.34L46.32,51a0.26,0.26,0,0,1,.1.13,0.4,0.4,0,0,1,0,.25c-0.07.11-.09,0.17,0.06,0.21a0.15,0.15,0,0,1,.06.1,1.13,1.13,0,0,1,0,.18c0.18,0,.09-0.13.08-0.18s0-.2.06-0.23a0.23,0.23,0,0,1,.31.09c0.05,0.1.13,0.18,0.19,0.28,0.22-.29.26-0.29,0.5,0l0,0a1.27,1.27,0,0,0-.09-0.35c-0.1-.17-0.24-0.31-0.34-0.47a0.65,0.65,0,0,1,0-.22,0.61,0.61,0,0,1,.21,0c0.15,0,.3.09,0.46,0.14l0-.06A0.33,0.33,0,0,1,47.61,50.51Z"/><path class="cls-2" d="M34.27,47.08l0.24,0.08a0.85,0.85,0,0,0,.16-0.58,1.14,1.14,0,0,1,.07-0.14,2.06,2.06,0,0,0,0-.46,0.46,0.46,0,0,0-.18-0.15c-0.1-.09-0.15,0-0.21.06a0.92,0.92,0,0,0-.22.11,0.3,0.3,0,0,0,0,.17c0,0.07,0,.14,0,0.23a0.29,0.29,0,0,1,0,.45Z"/><path class="cls-2" d="M36.83,30.39a0.89,0.89,0,0,0,.12-0.1l0-.41-0.29,0a0.45,0.45,0,0,1,.11.45,0.12,0.12,0,0,1-.08.08,0.14,0.14,0,0,1-.11-0.06,0.15,0.15,0,0,1,0-.1,0.53,0.53,0,0,0,0-.15,0.91,0.91,0,0,0-.21-0.1c0,0.27-.2.24-0.31,0.28a0.87,0.87,0,0,1,.09.3,0.17,0.17,0,0,0,.18.21,0.24,0.24,0,0,1,.26.24l0,0a0.48,0.48,0,0,1,0-.24,0.57,0.57,0,0,1,.24-0.1l-0.06,0C36.65,30.57,36.65,30.5,36.83,30.39Z"/><path class="cls-2" d="M35.54,28.43a0.22,0.22,0,0,0-.13-0.28,0.23,0.23,0,0,0-.28.17c0,0.11-.11.22-0.15,0.31l0.47,0.11C35.48,28.65,35.52,28.54,35.54,28.43Z"/><path class="cls-2" d="M35.48,30.44l-0.26.18,0.23,0.26a0.26,0.26,0,0,0,.32.11A0.49,0.49,0,0,0,35.48,30.44Z"/><path class="cls-2" d="M40.59,27.7a0.9,0.9,0,0,0,0,.59l0.25-.38c-0.23-.2,0-0.35.06-0.54C40.78,27.36,40.76,27.35,40.59,27.7Z"/><path class="cls-2" d="M42.88,26.65a1.13,1.13,0,0,1,.21-0.11c0.16,0,.1-0.18.18-0.25a0.17,0.17,0,0,0,0-.07,0.75,0.75,0,0,0-.3.09,1.72,1.72,0,0,0-.25.35A0.82,0.82,0,0,0,42.88,26.65Z"/><path class="cls-2" d="M48.18,49.3A0.78,0.78,0,0,1,47.63,49l-0.16.11a1,1,0,0,1,.62.43l0.43,0-0.07-.12C48.38,49.23,48.27,49.33,48.18,49.3Z"/><path class="cls-2" d="M25,26.29l0.21-.38L25,26c0,0.18,0,.19-0.25.08l0.06,0.26C24.89,26.09,25,26.25,25,26.29Z"/><path class="cls-2" d="M37.46,31.74a0.49,0.49,0,0,0,.1.21,0.4,0.4,0,0,0,.21,0v0l-0.28-.16Z"/><path class="cls-2" d="M43,26l0.16-.29a0.5,0.5,0,0,0-.23,0,0.55,0.55,0,0,0,0,.24h0Z"/><path class="cls-2" d="M36.08,31.37c0.12,0,.14.25,0.3,0.08C36.24,31.26,36.17,31.24,36.08,31.37Z"/><path class="cls-2" d="M40,26.1l0.29-.24-0.19-.06Z"/><path class="cls-2" d="M49,49.81l-0.3,0C48.85,49.91,48.88,49.92,49,49.81Z"/></svg>