<svg id="Layer_1" data-name="Layer 1" xmlns="http://www.w3.org/2000/svg" viewBox="0 0 67 67"><defs><style>.cls-1{fill:none;stroke:#cbcbcb;stroke-miterlimit:10;}.cls-2{fill:#989898;}</style></defs><title>mynomad region</title><circle class="cls-1" cx="33.62" cy="33.5" r="26.25"/><path class="cls-2" d="M40.91,16.46h0.51l0,0.05a2.34,2.34,0,0,1,.73,1.19c0.21,0.67.4,1.34,0.59,2a0.11,0.11,0,0,0,.12.1,1.21,1.21,0,0,1,.67.2,1.25,1.25,0,0,1,.4.52,5.33,5.33,0,0,1,.56,1.33A11.28,11.28,0,0,0,45.15,24a1.27,1.27,0,0,0,.69.74L46,24.82a3.8,3.8,0,0,1,1.15,1c0.27,0.35.56,0.67,0.82,1a2.34,2.34,0,0,1,.22.46,0.87,0.87,0,0,1,0,.16,1,1,0,0,1,1,.4,1.59,1.59,0,0,1,.38,1.08,1,1,0,0,0,.23.65L50,29.84A4.71,4.71,0,0,1,50.76,31a10,10,0,0,1,.54,2,4.6,4.6,0,0,1,0,1.81c-0.12.48-.26,1-0.42,1.42a8.91,8.91,0,0,1-.45,1.14c-0.5,1-1,2-1.57,3a0.84,0.84,0,0,0-.09.52c0,0.38,0,.76,0,1.14a1,1,0,0,1-.31.7,2.5,2.5,0,0,1-.86.56,0.81,0.81,0,0,1-.26.06,0.17,0.17,0,0,0-.17.1,3.62,3.62,0,0,1-.86,1.09,2.11,2.11,0,0,1-1.33.68c-0.75,0-1.51.06-2.27,0.07-0.38,0-.76,0-1.14,0a6,6,0,0,1-1.52-.39,2.66,2.66,0,0,1-1-.57,1,1,0,0,1-.36-1,0.26,0.26,0,0,0,0-.14c-0.07-.19-0.15-0.37-0.2-0.57S38.38,42,38.3,41.71l0,0a6.27,6.27,0,0,1-1.4.62,1.51,1.51,0,0,1-1.64-.41,1,1,0,0,1-.29-0.52,2.33,2.33,0,0,1,.54-1.76,1,1,0,0,0,.37-0.78,1,1,0,0,0-.57.29,1.22,1.22,0,0,1-.31.21,1.42,1.42,0,0,1-1.4,0,1.26,1.26,0,0,1-.49-0.57c-0.11-.22-0.21-0.45-0.31-0.68a0.47,0.47,0,0,0-.46-0.29H31.48a6.76,6.76,0,0,0-1.9.17,5,5,0,0,1-1.5.16c-0.4,0-.8,0-1.19,0a0.7,0.7,0,0,0-.66.32,2,2,0,0,1-1.63,1,9,9,0,0,1-1.3,0,2.59,2.59,0,0,0-1.18.21c-0.22.1-.44,0.21-0.67,0.3s-0.66.24-1,.37a11.11,11.11,0,0,1-1.91.69,3.48,3.48,0,0,1-1.48,0,1.73,1.73,0,0,1-1.39-1.43,1.39,1.39,0,0,1,.73-1.49,0.19,0.19,0,0,0,.08-0.12c0.06-.51.13-1,0.17-1.53a5.87,5.87,0,0,0-.77-3.45A1.72,1.72,0,0,1,16,31.16a0.21,0.21,0,0,0,0-.16c-0.07-.27-0.17-0.53-0.24-0.79s-0.15-.62-0.22-0.93V28.65l0-.1a6.59,6.59,0,0,1,.28-0.82A2.52,2.52,0,0,1,17,26.67a20.09,20.09,0,0,1,3.12-1.44l1.42-.48a1.41,1.41,0,0,0,.89-0.81c0-.11.1-0.21,0.15-0.32A6.64,6.64,0,0,0,23,22.71a1.51,1.51,0,0,1,.79-1.06,0.82,0.82,0,0,1,.87,0l0.18,0.09,0.1-.17a3.37,3.37,0,0,1,1.15-1.28,2.24,2.24,0,0,1,2.68-.09l0.19,0.11c0-.06,0-0.12,0-0.17A1.23,1.23,0,0,1,29,20a2.51,2.51,0,0,1,1-1.08,0.18,0.18,0,0,0,.09-0.16,3.06,3.06,0,0,1,.11-0.61,0.77,0.77,0,0,1,.47-0.5,1.34,1.34,0,0,1,1.36.13,0.19,0.19,0,0,0,.21,0,2.61,2.61,0,0,1,1-.16,0.85,0.85,0,0,1,.65.19,0.82,0.82,0,0,0,.65.26l1.86,0.11a1.19,1.19,0,0,1,1.1,1.06,1.24,1.24,0,0,1-.17.73,1.39,1.39,0,0,1-.66.61,3.6,3.6,0,0,1-.07.42,0.17,0.17,0,0,0,.06.21l1.73,1.42,0.68,0.56a3.94,3.94,0,0,0,.17-0.37,9.71,9.71,0,0,0,.45-2.65c0-.62,0-1.25,0-1.88a2.91,2.91,0,0,1,.22-1.06,1.22,1.22,0,0,1,.74-0.71Z"/><path class="cls-2" d="M45.48,48a2.28,2.28,0,0,1-.16,1,8.77,8.77,0,0,0-.3.85L45,50.07a0.62,0.62,0,0,1-.65.48A0.51,0.51,0,0,1,44,50.45a3.56,3.56,0,0,1-1-1.15,12.24,12.24,0,0,1-.9-1.82,0.48,0.48,0,0,1,0-.18,0.15,0.15,0,0,1,.19-0.16c0.25,0,.5.08,0.74,0.15a3.47,3.47,0,0,0,1,.2l0.27,0c0.16,0,.31-0.05.47-0.06A0.32,0.32,0,0,0,45,47.27c0.15-.19.32-0.16,0.41,0.07a1.41,1.41,0,0,1,0,.25,0.17,0.17,0,0,1,0,0Q45.48,47.81,45.48,48Z"/></svg>