<svg id="Layer_1" data-name="Layer 1" xmlns="http://www.w3.org/2000/svg" viewBox="0 0 67 67"><defs><style>.cls-1,.cls-4{fill:none;}.cls-1{stroke:#cbcbcb;stroke-miterlimit:10;}.cls-2{fill:#989898;}.cls-3{fill:#0071bb;}</style></defs><title>MyNomadTales Thermometers</title><circle class="cls-1" cx="33.58" cy="33.5" r="26.25"/><path class="cls-2" d="M33.59,47.9a6.17,6.17,0,0,1-5.47-9,6.22,6.22,0,0,1,1.59-2V22a2.94,2.94,0,0,1,2.94-2.94h1.89A2.94,2.94,0,0,1,37.47,22V37a6.15,6.15,0,0,1,2.28,4.79,6.16,6.16,0,0,1-6.16,6.16h0ZM32.64,20.31A1.73,1.73,0,0,0,30.91,22V37.25a0.61,0.61,0,0,1-.25.49,5,5,0,1,0,5.84,0,0.61,0.61,0,0,1-.25-0.49V22a1.73,1.73,0,0,0-1.73-1.73H32.64Zm0,0"/><path class="cls-2" d="M27.43,23.53a0.5,0.5,0,0,1-.5.5h-1a0.5,0.5,0,0,1-.5-0.5V23a0.5,0.5,0,0,1,.5-0.5h1a0.5,0.5,0,0,1,.5.5v0.54Zm0,0"/><path class="cls-2" d="M27.43,26.76a0.5,0.5,0,0,1-.5.5h-1a0.5,0.5,0,0,1-.5-0.5V26.22a0.5,0.5,0,0,1,.5-0.5h1a0.5,0.5,0,0,1,.5.5v0.54Zm0,0"/><path class="cls-2" d="M27.43,30a0.5,0.5,0,0,1-.5.5h-1a0.5,0.5,0,0,1-.5-0.5V29.45a0.5,0.5,0,0,1,.5-0.5h1a0.5,0.5,0,0,1,.5.5V30Zm0,0"/><path class="cls-2" d="M27.43,33.22a0.5,0.5,0,0,1-.5.5h-1a0.5,0.5,0,0,1-.5-0.5V32.68a0.5,0.5,0,0,1,.5-0.5h1a0.5,0.5,0,0,1,.5.5v0.54Zm0,0"/><path class="cls-2" d="M27.43,36.46a0.5,0.5,0,0,1-.5.5h-1a0.5,0.5,0,0,1-.5-0.5V35.92a0.5,0.5,0,0,1,.5-0.5h1a0.5,0.5,0,0,1,.5.5v0.54Zm0,0"/><path class="cls-2" d="M33.6,45.43a3.75,3.75,0,0,1-3.31-5.49,3.76,3.76,0,1,0,7.06,1.8v0A3.75,3.75,0,0,1,33.6,45.43Z"/><path class="cls-2" d="M37.35,41.71v0a3.75,3.75,0,0,0-2.48-3.52v0A3.76,3.76,0,0,1,37.35,41.71Z"/><path class="cls-2" d="M32.3,38.2v0a3.76,3.76,0,0,0-2,1.77A3.77,3.77,0,0,1,32.3,38.2Z"/><path class="cls-3" d="M33.6,45.43a3.72,3.72,0,0,0,1.27-7.23v0a3.76,3.76,0,0,0-2.57,0v0a3.77,3.77,0,0,0-2,1.74A3.75,3.75,0,0,0,33.6,45.43Zm-2.27-4.07a2.55,2.55,0,0,1,.82-1.48,0.46,0.46,0,1,1,.6.68,1.62,1.62,0,0,0-.53.95,1.64,1.64,0,0,0,0,.59,0.46,0.46,0,0,1-.36.53H31.79a0.46,0.46,0,0,1-.45-0.37A2.53,2.53,0,0,1,31.33,41.36Z"/><rect class="cls-4" x="0.08" width="67" height="67"/></svg>