<svg id="Layer_1" data-name="Layer 1" xmlns="http://www.w3.org/2000/svg" viewBox="0 0 67 67"><defs><style>.cls-1,.cls-4{fill:none;}.cls-1{stroke:#cbcbcb;stroke-miterlimit:10;}.cls-2{fill:#989898;}.cls-3{fill:#c0272d;}</style></defs><title>MyNomadTales Thermometers</title><circle class="cls-1" cx="33.73" cy="33.08" r="26.25"/><path class="cls-2" d="M33.74,47.48a6.17,6.17,0,0,1-5.47-9,6.22,6.22,0,0,1,1.59-2V21.61a2.94,2.94,0,0,1,2.94-2.94h1.89a2.94,2.94,0,0,1,2.94,2.94V36.53a6.15,6.15,0,0,1,2.28,4.79,6.16,6.16,0,0,1-6.16,6.16h0ZM32.79,19.88a1.73,1.73,0,0,0-1.73,1.73V36.82a0.61,0.61,0,0,1-.25.49,5,5,0,1,0,5.84,0,0.61,0.61,0,0,1-.25-0.49V21.61a1.73,1.73,0,0,0-1.73-1.73H32.79Zm0,0"/><path class="cls-2" d="M27.58,23.1a0.5,0.5,0,0,1-.5.5h-1a0.5,0.5,0,0,1-.5-0.5V22.56a0.5,0.5,0,0,1,.5-0.5h1a0.5,0.5,0,0,1,.5.5V23.1Zm0,0"/><path class="cls-2" d="M27.58,26.33a0.5,0.5,0,0,1-.5.5h-1a0.5,0.5,0,0,1-.5-0.5V25.79a0.5,0.5,0,0,1,.5-0.5h1a0.5,0.5,0,0,1,.5.5v0.54Zm0,0"/><path class="cls-2" d="M27.58,29.57a0.5,0.5,0,0,1-.5.5h-1a0.5,0.5,0,0,1-.5-0.5V29a0.5,0.5,0,0,1,.5-0.5h1a0.5,0.5,0,0,1,.5.5v0.54Zm0,0"/><path class="cls-2" d="M27.58,32.8a0.5,0.5,0,0,1-.5.5h-1a0.5,0.5,0,0,1-.5-0.5V32.26a0.5,0.5,0,0,1,.5-0.5h1a0.5,0.5,0,0,1,.5.5V32.8Zm0,0"/><path class="cls-2" d="M27.58,36a0.5,0.5,0,0,1-.5.5h-1a0.5,0.5,0,0,1-.5-0.5V35.49a0.5,0.5,0,0,1,.5-0.5h1a0.5,0.5,0,0,1,.5.5V36Zm0,0"/><path class="cls-3" d="M35,35.31V22.15a1,1,0,0,0-.95-0.95H33.4a1,1,0,0,0-.95.95V35.32A3.76,3.76,0,0,1,35,35.31Z"/><path class="cls-2" d="M33.75,45a3.75,3.75,0,0,1-3.31-5.49,3.76,3.76,0,1,0,7.06,1.8v0A3.75,3.75,0,0,1,33.75,45Z"/><path class="cls-2" d="M37.5,41.28v0A3.75,3.75,0,0,0,35,37.74v0A3.76,3.76,0,0,1,37.5,41.28Z"/><path class="cls-2" d="M32.45,37.78v0a3.76,3.76,0,0,0-2,1.77A3.77,3.77,0,0,1,32.45,37.78Z"/><path class="cls-3" d="M33.75,45A3.72,3.72,0,0,0,35,37.78v0a3.76,3.76,0,0,0-2.57,0v0a3.77,3.77,0,0,0-2,1.74A3.75,3.75,0,0,0,33.75,45Zm-2.27-4.07a2.55,2.55,0,0,1,.82-1.48,0.46,0.46,0,1,1,.6.68,1.62,1.62,0,0,0-.53.95,1.64,1.64,0,0,0,0,.59,0.46,0.46,0,0,1-.36.53H31.94a0.46,0.46,0,0,1-.45-0.37A2.53,2.53,0,0,1,31.48,40.94Z"/><rect class="cls-3" x="32.45" y="34.35" width="2.57" height="4.28"/><rect class="cls-4" x="0.23" y="-0.42" width="67" height="67"/></svg>