<svg id="Layer_1" data-name="Layer 1" xmlns="http://www.w3.org/2000/svg" viewBox="0 0 67 67"><defs><style>.cls-1,.cls-4{fill:none;}.cls-1{stroke:#cbcbcb;stroke-miterlimit:10;}.cls-2{fill:#989898;}.cls-3{fill:#22b473;}</style></defs><title>MyNomadTales Thermometers</title><circle class="cls-1" cx="33.57" cy="33.21" r="26.25"/><path class="cls-2" d="M33.57,47.61a6.17,6.17,0,0,1-5.47-9,6.22,6.22,0,0,1,1.59-2V21.74a2.94,2.94,0,0,1,2.94-2.94h1.89a2.94,2.94,0,0,1,2.94,2.94V36.66a6.15,6.15,0,0,1,2.28,4.79,6.16,6.16,0,0,1-6.16,6.16h0ZM32.63,20a1.73,1.73,0,0,0-1.73,1.73V37a0.61,0.61,0,0,1-.25.49,5,5,0,1,0,5.84,0A0.61,0.61,0,0,1,36.25,37V21.74A1.73,1.73,0,0,0,34.52,20H32.63Zm0,0"/><path class="cls-2" d="M27.41,23.23a0.5,0.5,0,0,1-.5.5h-1a0.5,0.5,0,0,1-.5-0.5V22.69a0.5,0.5,0,0,1,.5-0.5h1a0.5,0.5,0,0,1,.5.5v0.54Zm0,0"/><path class="cls-2" d="M27.41,26.46a0.5,0.5,0,0,1-.5.5h-1a0.5,0.5,0,0,1-.5-0.5V25.92a0.5,0.5,0,0,1,.5-0.5h1a0.5,0.5,0,0,1,.5.5v0.54Zm0,0"/><path class="cls-2" d="M27.41,29.7a0.5,0.5,0,0,1-.5.5h-1a0.5,0.5,0,0,1-.5-0.5V29.16a0.5,0.5,0,0,1,.5-0.5h1a0.5,0.5,0,0,1,.5.5V29.7Zm0,0"/><path class="cls-2" d="M27.41,32.93a0.5,0.5,0,0,1-.5.5h-1a0.5,0.5,0,0,1-.5-0.5V32.39a0.5,0.5,0,0,1,.5-0.5h1a0.5,0.5,0,0,1,.5.5v0.54Zm0,0"/><path class="cls-2" d="M27.41,36.16a0.5,0.5,0,0,1-.5.5h-1a0.5,0.5,0,0,1-.5-0.5V35.62a0.5,0.5,0,0,1,.5-0.5h1a0.5,0.5,0,0,1,.5.5v0.54Zm0,0"/><path class="cls-2" d="M33.59,45.14a3.75,3.75,0,0,1-3.31-5.49,3.76,3.76,0,1,0,7.06,1.8v0A3.75,3.75,0,0,1,33.59,45.14Z"/><path class="cls-2" d="M37.33,41.42v0a3.75,3.75,0,0,0-2.48-3.52v0A3.76,3.76,0,0,1,37.33,41.42Z"/><path class="cls-2" d="M32.29,37.91v0a3.76,3.76,0,0,0-2,1.77A3.77,3.77,0,0,1,32.29,37.91Z"/><path class="cls-3" d="M33.59,45.14a3.72,3.72,0,0,0,1.27-7.23v0a3.76,3.76,0,0,0-2.57,0v0a3.77,3.77,0,0,0-2,1.74A3.75,3.75,0,0,0,33.59,45.14Zm-2.27-4.07a2.55,2.55,0,0,1,.82-1.48,0.46,0.46,0,1,1,.6.68,1.62,1.62,0,0,0-.53.95,1.64,1.64,0,0,0,0,.59,0.46,0.46,0,0,1-.36.53H31.77A0.46,0.46,0,0,1,31.33,42,2.53,2.53,0,0,1,31.32,41.07Z"/><path class="cls-3" d="M34.85,38.14l0-7.76a1,1,0,0,0-.94-1H33.28a1,1,0,0,0-1,.94l0,7.78h2.57Z"/><rect class="cls-4" x="0.07" y="-0.29" width="67" height="67"/></svg>